P2
# Imagem criada pelo lab13
5 3
255
0 0 50 127 25
0 50 255 255 25
0 0 127 127 127
