P2
# Imagem criada pelo lab13
5 3
255
0 0 50 127 0 
0 50 0 0 0 
0 0 55 55 55 
