P2
# Imagem criada pelo lab13
5 3
255
0 0 0 255 255
0 0 255 255 255
0 0 255 255 255
