P2
# Imagem criada pelo lab13
100 67
255
25 25 25 25 25 25 25 25 25 25 25 25 25 25 25 25 25 25 25 25 25 25 25 25 25 25 25 25 55 70 69 25 25 25 0 25 57 25 25 25 25 69 25 53 25 59 25 0 25 25 25 25 25 25 25 25 25 25 55 25 41 25 29 25 3 56 0 57 55 58 25 25 25 25 25 25 25 25 25 25 25 25 25 25 25 25 25 25 25 25 25 25 25 25 25 25 25 25 25 25
25 25 25 25 25 25 25 25 25 25 25 25 25 25 25 25 25 25 25 25 25 25 25 25 25 25 25 65 25 25 25 25 25 25 53 25 25 25 25 25 25 25 25 25 25 25 25 25 25 25 25 25 25 25 25 25 25 25 25 25 25 25 62 25 63 57 25 25 25 25 70 25 55 25 25 25 25 25 25 25 25 25 25 25 25 25 25 25 25 25 25 25 25 25 25 25 25 25 25 25
25 25 25 25 25 25 25 25 25 25 25 25 25 25 25 25 25 25 25 25 25 25 25 25 25 25 25 25 25 25 25 25 25 25 25 25 25 25 25 25 25 25 25 25 25 25 25 25 25 25 25 25 179 25 25 25 25 25 25 25 25 25 25 25 25 25 25 25 25 25 25 25 25 25 68 25 25 25 25 25 25 25 25 25 25 25 25 25 25 25 25 25 25 25 25 25 25 25 25 25
25 25 25 25 25 25 25 25 25 25 25 25 157 25 25 25 25 25 25 25 25 25 25 25 25 25 25 25 25 25 25 25 25 25 25 25 25 25 25 25 178 25 25 25 25 25 25 25 25 25 25 189 25 178 25 25 25 25 25 181 185 25 25 25 176 25 177 25 25 25 25 25 25 25 25 25 25 25 25 25 70 37 25 25 25 25 25 25 25 25 25 25 25 25 25 25 25 25 25 25
25 25 25 25 25 25 25 25 25 25 25 25 25 25 25 25 25 25 25 25 25 70 25 25 25 25 25 25 25 25 25 25 25 25 25 25 25 25 25 25 25 25 25 25 25 25 25 25 25 25 176 25 189 25 25 25 177 25 25 25 25 25 25 25 25 25 25 25 176 25 25 25 25 25 25 25 25 25 25 25 25 25 25 25 25 25 25 25 25 25 25 25 25 25 25 25 25 25 25 25
25 25 25 25 25 25 25 25 25 25 25 25 25 25 25 25 25 25 25 25 70 25 25 25 25 25 25 25 25 25 25 25 25 25 25 25 25 25 25 25 25 25 25 25 25 25 25 25 25 25 25 177 25 25 25 25 25 25 25 25 25 25 25 25 176 25 25 25 25 183 25 25 25 177 25 25 25 25 25 25 25 25 25 25 25 25 25 72 56 25 25 25 25 25 25 25 25 25 25 25
25 25 25 25 25 25 25 25 25 25 25 25 25 25 25 25 25 25 25 25 25 25 25 25 25 25 25 25 25 25 25 25 25 25 25 25 25 25 25 25 25 25 25 25 25 25 25 1 176 25 25 25 182 25 25 25 25 25 25 183 25 177 25 25 25 25 25 25 25 177 184 25 25 25 25 25 25 25 25 25 25 25 25 25 25 25 25 25 25 25 66 25 67 25 25 25 25 25 25 25
25 25 25 25 25 25 25 25 25 25 25 25 25 25 25 25 25 25 25 25 25 25 25 25 25 25 25 25 25 25 25 25 25 25 25 25 25 25 25 25 25 25 25 25 25 25 25 25 25 25 25 25 25 25 25 25 25 25 25 25 176 25 25 25 25 25 25 25 25 25 183 176 25 25 25 25 25 25 25 25 25 25 25 177 25 25 25 25 25 25 25 25 25 25 25 25 25 25 25 25
25 160 156 160 25 25 25 25 25 25 25 25 25 25 25 25 25 25 25 25 25 25 25 25 25 25 25 25 25 25 25 25 25 25 25 25 25 25 25 25 25 25 25 65 25 4 25 2 25 25 188 25 25 25 179 177 176 177 176 25 25 25 25 25 25 25 25 25 25 25 25 25 25 25 25 25 25 25 25 25 25 176 25 25 25 25 25 25 25 25 25 25 25 25 25 25 25 72 25 25
25 25 25 25 25 25 25 25 25 25 25 25 25 25 25 25 25 25 25 25 25 25 25 25 25 25 25 25 25 25 25 25 25 25 25 25 25 25 25 177 25 25 25 25 25 25 25 60 25 25 25 25 25 25 25 180 25 25 176 25 25 25 25 25 25 25 25 25 25 25 25 25 25 25 25 25 25 25 25 25 25 25 25 25 25 25 176 25 25 25 25 25 25 25 25 25 25 25 25 25
25 25 25 25 25 25 25 25 25 25 25 25 25 25 25 25 25 25 25 25 25 25 25 25 25 25 25 25 25 25 25 25 25 176 25 25 25 25 25 25 25 25 25 25 25 7 25 2 25 52 25 25 25 25 25 176 25 182 25 25 25 25 25 25 25 25 25 25 25 25 25 25 25 177 25 177 25 25 25 25 25 25 25 25 176 25 25 25 25 25 177 25 25 25 25 25 25 25 25 25
25 25 25 25 25 25 25 25 25 25 25 25 25 25 25 25 25 25 25 25 25 25 25 25 25 25 25 25 25 25 25 25 25 25 25 25 25 25 25 185 25 25 25 25 25 25 25 25 25 25 25 25 25 25 25 25 180 25 25 25 25 25 25 25 25 25 25 25 25 25 25 25 25 211 25 25 25 25 25 25 25 25 25 25 25 177 25 25 174 25 25 177 25 25 25 25 25 25 25 25
102 25 113 25 25 25 25 25 25 25 69 25 25 25 25 25 25 25 25 25 25 25 25 25 25 25 25 25 25 25 25 25 25 25 25 25 25 25 25 25 25 25 25 25 25 25 25 45 25 25 25 25 25 25 25 25 25 25 25 25 25 25 25 25 25 25 25 25 25 25 25 25 25 25 25 25 25 25 25 25 25 25 25 25 25 25 25 25 25 25 25 25 25 25 25 25 25 25 25 25
25 25 25 25 25 25 25 25 25 25 25 25 25 25 25 25 25 25 25 25 25 25 25 25 25 25 25 25 25 25 25 25 25 25 25 25 25 25 25 185 25 181 25 183 25 25 25 25 25 25 25 25 179 25 25 25 185 25 25 25 25 25 176 25 25 25 25 25 25 25 25 25 25 25 25 25 25 25 25 25 25 25 25 25 25 25 25 25 25 25 25 25 25 25 25 25 25 25 25 25
25 25 25 25 25 25 25 25 25 25 25 25 25 25 25 25 25 25 25 25 25 25 25 25 25 25 25 25 25 25 25 25 25 25 25 25 25 25 25 25 25 25 25 25 25 25 25 25 25 25 25 25 25 25 25 25 25 25 72 25 25 25 25 25 25 25 25 25 25 25 25 25 25 25 25 25 25 25 25 25 25 25 177 25 25 25 25 25 25 25 25 25 25 25 25 25 25 25 25 25
25 25 25 25 25 25 25 25 25 25 25 25 25 25 25 25 25 25 25 25 25 25 25 25 25 25 25 25 25 25 25 25 25 25 25 25 25 176 25 181 25 181 25 25 25 25 25 0 25 54 25 25 25 25 25 25 25 25 25 25 25 25 25 25 15 25 25 25 25 25 25 25 25 177 25 25 25 25 25 25 176 25 25 25 25 25 25 25 25 25 25 25 25 25 25 25 25 25 25 25
25 25 25 25 25 25 25 25 25 25 25 25 25 25 25 25 25 25 25 25 25 25 25 25 25 25 25 25 25 25 25 25 25 25 25 25 25 25 25 25 25 25 25 25 25 25 25 60 25 45 25 25 25 25 25 25 25 25 25 25 25 25 25 25 56 25 25 25 25 25 25 25 25 25 25 25 25 25 25 25 25 25 25 25 25 25 25 25 25 25 25 25 25 25 25 25 25 25 25 25
25 25 25 25 25 25 25 25 25 25 25 25 25 25 25 25 25 25 25 25 25 25 25 25 25 25 25 25 25 25 25 25 25 25 25 25 25 25 25 62 25 25 25 15 25 4 25 1 25 38 25 54 25 69 58 25 46 25 23 25 8 25 5 25 14 25 66 25 25 25 25 25 25 25 25 25 25 25 25 25 25 25 25 25 25 25 25 25 25 25 25 25 25 25 25 25 25 174 175 25
25 25 25 25 25 25 25 25 25 25 25 25 25 25 25 25 25 25 25 25 25 25 25 25 25 25 25 25 25 25 25 25 25 25 25 25 25 25 25 25 66 25 25 25 57 67 25 54 25 17 25 59 65 71 11 1 16 0 65 25 45 25 56 25 53 25 25 59 25 25 25 25 25 25 25 25 25 25 25 25 25 25 25 25 25 25 25 25 25 25 25 25 25 25 25 25 177 25 25 25
25 25 25 25 25 25 25 25 25 25 25 25 25 25 25 25 25 25 25 25 25 25 25 25 25 25 25 25 25 25 25 25 25 25 38 25 58 58 25 37 25 18 25 0 3 0 0 1 0 2 11 0 0 0 0 0 0 0 1 0 0 0 6 0 4 0 57 25 59 25 66 25 25 25 25 25 25 25 25 25 25 25 25 25 25 25 25 25 25 25 25 25 177 25 25 25 25 25 25 25
25 25 25 25 25 25 25 25 25 25 25 25 25 25 25 25 25 25 25 25 25 25 25 25 25 25 25 25 25 25 25 25 25 25 44 25 52 25 48 25 59 37 38 0 3 0 0 3 0 1 0 6 0 1 0 2 2 1 6 5 0 0 0 3 0 0 8 64 28 25 64 50 25 25 25 25 25 25 25 25 25 25 25 25 25 25 25 25 25 25 25 25 25 25 25 177 25 25 25 25
25 25 25 25 25 25 25 25 25 25 25 25 25 25 25 25 25 25 25 25 25 25 25 25 25 25 25 25 25 25 25 25 25 25 38 6 0 0 5 3 0 0 1 0 0 6 0 0 2 7 0 1 0 2 17 55 0 25 25 25 4 1 1 0 5 0 24 25 25 69 52 25 58 25 38 25 25 25 25 25 25 25 25 25 25 25 25 25 25 25 25 25 25 25 25 25 25 25 25 25
25 25 25 25 25 25 25 25 25 25 25 25 25 25 25 25 25 25 25 25 25 25 25 25 25 25 25 25 25 25 25 25 25 25 44 58 58 4 59 0 4 0 0 4 0 0 7 0 0 0 28 56 58 59 25 25 25 25 25 25 25 25 25 25 72 25 25 25 25 56 63 54 63 25 67 64 25 70 66 25 25 25 25 25 25 25 25 25 25 25 25 25 25 25 25 25 175 25 25 25
25 25 25 25 25 25 25 25 25 25 25 25 25 25 25 25 25 25 25 25 25 25 25 25 25 25 25 25 25 25 25 25 25 25 41 32 65 3 5 1 0 2 0 0 1 8 0 2 3 0 44 68 0 72 10 25 25 25 25 25 25 25 25 25 25 25 25 25 25 25 25 25 57 55 25 56 66 46 67 68 25 25 25 25 25 25 25 25 25 25 25 25 25 25 25 25 25 174 25 25
25 25 25 25 25 25 25 25 25 25 25 25 25 25 25 25 25 25 25 25 25 25 25 25 25 25 25 25 25 25 72 25 25 25 42 25 53 25 61 0 0 2 3 0 1 2 58 6 48 44 67 49 91 56 25 25 25 25 25 25 25 25 25 25 25 25 25 25 25 25 25 25 25 25 25 47 25 57 34 64 45 52 25 25 25 25 25 25 25 25 25 25 177 25 25 25 176 25 25 25
25 25 25 25 25 25 25 25 25 25 25 25 25 25 25 25 25 25 25 25 25 25 25 25 25 25 25 25 25 25 25 25 200 200 36 25 25 3 0 11 3 0 5 4 59 0 59 0 48 33 22 58 5 0 0 18 25 25 25 25 25 25 25 25 25 25 25 25 25 25 25 25 25 25 25 25 25 65 66 25 62 64 25 25 25 25 25 25 25 25 25 25 25 25 187 25 25 25 25 25
25 25 25 25 25 25 25 25 25 25 25 25 25 25 25 25 25 25 25 25 25 25 25 25 25 25 25 25 25 25 25 200 200 25 200 25 25 25 0 0 0 5 64 69 91 71 100 46 113 35 96 48 111 54 3 11 25 25 25 25 25 25 25 25 25 25 25 25 25 25 25 25 25 25 25 25 25 25 66 68 25 62 47 25 25 25 25 25 25 25 25 25 25 25 25 25 25 25 25 25
25 25 25 25 25 25 25 25 25 25 25 25 25 25 25 25 25 25 25 25 25 25 25 25 25 25 25 25 25 200 200 200 200 200 25 25 25 27 7 3 0 2 60 39 49 33 60 35 48 41 39 54 32 47 0 0 25 25 25 186 25 175 25 181 25 25 189 25 25 25 25 25 25 178 25 25 25 25 25 25 25 46 61 25 25 25 25 25 25 25 25 25 25 25 25 25 25 25 25 25
25 25 25 25 25 25 25 25 25 25 25 25 25 25 25 25 25 25 25 25 25 25 25 25 25 25 25 200 200 200 200 155 145 200 25 25 25 2 2 0 8 51 91 68 81 41 138 63 25 20 109 51 89 25 0 2 0 7 0 55 40 25 53 25 25 25 25 25 25 25 25 25 25 25 202 25 25 25 25 25 25 25 25 25 25 25 25 25 25 25 25 25 25 25 25 25 25 25 25 25
25 25 25 25 25 25 25 25 25 25 25 25 25 25 25 25 25 25 25 25 25 71 25 25 25 25 200 200 146 144 147 145 138 200 25 25 69 0 72 1 71 55 63 59 61 58 68 63 25 48 48 59 1 0 0 2 5 0 2 3 0 10 0 59 58 46 25 25 25 25 25 25 25 174 191 25 25 25 25 25 25 25 25 25 25 174 25 25 25 25 25 25 25 25 25 25 25 25 25 25
25 25 25 25 25 25 25 25 25 25 25 25 25 25 25 25 25 25 25 25 25 25 25 25 25 200 200 200 158 151 200 147 147 200 25 200 60 43 0 67 3 67 25 47 25 3 5 0 25 30 94 63 0 0 7 0 0 2 0 0 0 1 0 4 0 43 25 25 25 179 25 25 174 208 25 25 25 25 25 25 25 25 25 25 25 176 184 25 176 25 25 25 25 25 25 72 25 25 25 25
25 25 25 25 25 25 25 25 25 25 25 25 25 25 25 25 25 25 25 25 25 25 25 200 200 200 200 200 200 200 200 200 143 200 200 25 56 59 56 68 65 25 25 25 56 59 63 59 25 54 76 49 0 3 0 1 0 3 1 0 0 1 3 0 0 33 72 25 25 25 25 25 189 180 25 182 25 25 25 25 25 25 66 25 25 186 182 182 25 25 25 25 25 25 25 25 25 71 25 25
25 25 25 25 25 25 25 25 25 25 25 25 25 25 25 25 25 25 25 25 25 25 200 200 200 200 200 200 200 200 200 144 200 200 25 25 62 71 25 64 25 25 25 20 25 70 25 56 25 29 51 2 2 0 4 0 0 0 0 0 3 1 0 0 0 25 25 25 25 25 25 25 25 182 176 25 25 25 25 25 25 25 25 25 25 180 184 192 183 25 25 25 25 25 25 25 25 25 25 25
25 25 25 25 25 25 25 25 25 25 25 25 25 25 25 25 25 25 25 25 25 25 200 200 200 143 143 147 200 200 200 200 200 25 25 25 51 61 57 25 25 25 25 25 25 25 25 25 25 34 73 0 4 4 0 0 0 3 3 0 0 0 3 2 0 37 55 25 25 25 25 25 191 196 178 25 25 25 25 25 54 45 68 25 25 25 193 177 185 175 187 25 174 25 25 25 25 25 25 25
25 25 25 25 25 25 25 25 25 25 25 25 25 25 25 25 25 25 25 25 25 25 200 145 146 145 200 200 146 200 200 200 200 200 25 25 62 53 25 30 25 38 25 33 25 25 25 25 25 45 23 0 2 0 5 2 1 0 1 0 0 0 1 0 2 48 72 25 25 25 25 25 25 182 25 175 25 25 25 25 25 25 58 25 25 25 189 194 185 178 187 25 191 25 176 25 25 25 25 25
25 25 25 25 25 25 25 25 25 25 25 25 25 25 25 25 200 25 200 200 200 200 200 200 200 200 200 200 200 144 200 200 200 200 200 25 64 25 25 25 25 25 25 25 25 25 25 25 25 25 25 0 0 0 4 0 2 0 0 4 2 0 0 0 0 41 25 25 25 25 25 25 179 191 25 25 190 25 25 25 25 54 25 25 25 181 174 202 196 184 178 190 192 185 192 25 25 25 25 25
25 25 25 25 25 25 25 25 25 25 25 25 25 25 200 200 200 200 200 149 200 200 200 143 200 200 200 200 200 200 200 200 200 200 25 25 67 1 25 0 25 25 25 59 25 25 175 25 25 30 61 62 0 0 0 0 0 0 2 1 0 0 2 6 2 25 60 25 25 25 25 25 25 25 25 25 25 25 25 25 25 25 25 66 25 25 203 186 199 189 199 204 190 201 193 179 25 25 25 25
25 25 25 25 25 25 25 25 25 25 25 25 25 200 200 200 200 200 200 200 200 200 200 200 145 145 200 200 200 200 200 200 200 200 200 25 64 25 70 25 25 25 25 25 25 25 25 25 25 62 99 61 0 2 4 0 0 4 1 0 0 3 0 0 0 43 70 25 25 25 25 25 25 25 25 25 25 25 25 25 25 25 65 25 25 177 189 201 181 194 194 182 190 187 192 177 174 180 25 25
25 25 25 25 25 25 25 25 25 25 25 25 25 25 200 200 200 200 200 200 200 200 200 200 146 200 146 200 200 200 200 200 200 200 25 59 48 24 62 38 66 25 25 25 25 25 25 72 70 25 39 51 9 0 0 0 0 4 0 0 5 2 0 6 4 34 64 25 25 25 25 25 25 25 25 25 25 25 25 25 25 25 25 68 25 25 177 185 180 200 175 187 190 188 194 169 178 174 25 25
25 25 25 25 25 25 25 25 25 25 25 200 200 200 200 200 200 200 200 200 200 200 144 200 200 200 145 200 200 200 145 200 200 200 200 25 61 90 66 25 25 25 25 25 25 25 25 25 25 25 25 59 25 70 0 0 0 3 0 1 3 0 7 54 54 25 25 25 25 25 25 25 25 25 25 25 25 25 25 25 25 25 25 25 25 25 187 192 199 180 196 192 203 188 200 171 183 25 25 25
25 25 25 25 25 71 25 25 25 200 25 200 200 200 200 200 200 110 200 200 200 200 200 200 200 200 200 200 134 200 146 200 200 200 25 25 63 0 63 62 25 25 25 25 25 25 25 25 25 25 25 25 0 68 0 2 0 5 0 2 3 0 0 7 6 25 54 25 25 25 25 25 25 25 25 25 25 25 25 25 25 72 25 25 25 175 199 200 194 191 182 197 202 184 189 204 188 181 25 180
25 25 25 25 25 25 25 25 25 25 200 25 200 200 200 106 200 200 200 200 200 200 200 200 200 200 200 200 200 200 144 200 200 200 200 200 25 25 68 25 25 175 25 187 25 25 25 25 25 25 25 25 25 25 25 41 40 46 34 46 34 49 61 25 25 25 25 25 25 25 25 25 25 25 25 25 25 25 25 25 25 25 25 25 25 197 181 192 189 181 206 193 186 194 199 199 177 182 183 25
68 25 70 25 25 62 25 25 25 200 25 200 25 200 200 200 200 200 200 200 147 200 200 200 200 200 200 200 200 200 200 146 200 200 25 25 25 37 50 25 72 25 25 25 25 25 25 25 25 25 25 25 72 25 67 25 55 54 51 60 51 61 56 69 25 25 25 25 25 25 25 25 25 25 25 25 25 25 25 25 25 25 25 25 184 181 193 199 200 194 197 197 212 196 194 186 198 194 188 180
25 25 25 25 25 25 25 25 200 25 200 200 200 200 200 200 200 200 200 145 200 200 146 200 200 200 200 200 200 200 200 200 200 200 25 200 25 25 25 25 25 25 25 25 25 25 25 25 25 25 25 25 25 25 180 25 25 25 25 25 25 25 25 25 25 25 25 25 25 25 25 25 25 25 25 25 25 25 25 25 25 25 25 25 180 194 200 198 177 198 191 189 204 198 202 191 191 189 184 188
69 25 25 25 25 25 25 25 200 200 200 200 200 200 200 200 200 200 200 200 200 144 200 145 200 200 200 200 200 200 200 200 200 200 200 25 25 61 69 67 25 25 25 25 25 25 25 25 25 25 25 25 25 25 25 25 25 25 25 179 25 25 25 25 25 25 25 25 25 25 25 25 25 25 25 25 25 25 25 25 25 25 25 183 25 200 190 209 212 190 198 205 194 199 191 199 179 192 198 182
25 25 25 25 25 25 25 25 200 200 200 200 200 200 200 200 200 200 200 144 200 200 146 200 200 200 200 200 200 200 200 200 147 200 200 200 25 25 25 35 67 25 25 25 25 25 25 25 25 25 25 25 25 25 25 25 25 25 25 25 25 25 25 25 25 25 25 25 25 25 25 25 25 25 25 25 25 25 25 25 25 25 25 25 181 193 185 186 182 188 183 186 183 206 193 180 182 181 190 170
25 25 25 25 25 25 25 25 25 200 200 200 200 200 200 200 200 200 146 200 200 200 200 200 144 200 200 200 200 200 200 200 200 200 200 25 200 25 60 25 64 66 25 25 25 25 25 25 25 25 25 25 25 25 25 25 25 25 25 177 25 25 25 25 25 25 179 25 25 25 25 25 25 25 25 25 25 25 25 25 25 25 25 198 187 191 193 200 179 198 185 201 199 182 180 188 203 188 182 179
25 25 25 25 25 25 25 25 25 25 200 200 200 200 200 200 200 200 200 149 154 200 200 200 200 200 200 200 200 200 200 200 200 200 200 200 25 200 25 4 25 42 25 69 25 25 25 25 25 64 176 25 179 25 25 25 25 25 25 25 176 25 0 25 25 25 25 25 25 25 25 25 25 25 25 25 25 25 25 25 25 25 177 175 185 193 190 196 197 180 191 201 198 195 191 199 180 188 179 195
200 200 200 200 25 25 25 200 25 200 200 200 200 200 200 200 144 200 200 200 158 200 145 200 200 147 200 200 200 141 200 200 200 200 200 25 200 25 25 25 25 68 68 25 25 25 25 25 25 25 25 25 25 25 25 25 25 25 25 182 177 25 25 70 25 25 25 25 25 25 25 25 25 25 25 25 25 25 25 25 25 174 194 196 199 201 201 194 198 196 197 193 204 185 192 190 186 187 188 187
25 25 25 200 200 25 25 25 200 25 25 200 200 200 200 200 200 106 200 200 200 200 200 200 200 200 200 200 200 143 200 136 200 200 25 200 25 200 25 25 25 30 68 8 25 25 25 25 178 25 180 25 25 25 38 25 25 25 25 176 25 25 25 25 25 25 25 25 25 25 25 25 25 25 25 25 58 25 25 25 185 187 192 185 189 189 199 202 182 205 189 194 195 200 169 181 187 191 182 171
25 25 25 25 200 25 200 200 25 200 200 200 200 200 200 200 200 144 200 200 200 200 200 200 143 200 135 140 133 145 141 200 126 200 200 25 200 25 200 25 25 25 25 25 25 25 25 25 25 25 25 25 25 25 25 25 25 25 25 25 181 25 25 25 25 25 25 25 25 25 25 25 25 25 25 25 25 25 25 25 189 181 196 186 203 185 196 193 192 194 182 217 197 179 212 190 187 169 174 188
25 25 25 25 200 200 200 25 200 200 25 200 200 200 200 200 200 200 200 200 200 200 200 200 200 200 200 200 200 141 145 147 138 200 25 200 25 200 25 25 25 3 55 3 25 1 25 6 25 44 25 25 25 25 25 25 25 25 25 179 25 174 36 25 25 25 25 25 25 25 25 25 25 25 25 55 25 25 25 181 189 190 179 197 187 199 191 200 200 196 200 172 190 190 188 179 175 190 187 179
25 25 25 25 200 25 25 200 25 25 200 200 200 25 25 200 200 200 200 200 200 200 200 200 200 200 200 200 200 200 200 200 200 200 200 200 200 200 200 200 25 25 25 1 54 25 25 25 25 25 25 25 25 25 25 25 25 25 25 25 175 25 25 25 25 25 25 25 25 25 25 25 25 25 25 25 25 25 25 187 196 191 189 184 191 193 198 197 188 192 193 183 193 191 167 201 178 170 182 194
25 200 200 200 25 200 200 200 25 25 25 25 25 200 200 200 200 200 200 200 200 200 142 200 200 200 200 195 200 200 200 200 200 200 200 200 200 200 200 200 200 25 25 11 60 6 68 0 25 56 25 25 25 25 25 25 25 25 25 25 25 25 25 25 71 25 25 25 25 25 25 25 25 25 25 25 25 185 174 183 186 192 188 193 190 200 195 192 201 196 215 205 170 192 191 180 179 198 196 183
200 200 200 200 200 200 200 200 200 200 200 200 200 200 200 200 200 200 200 200 200 200 200 200 200 196 189 200 200 200 200 200 200 200 200 200 200 200 200 200 200 200 200 200 144 86 68 59 25 52 25 25 25 25 25 25 25 25 25 25 25 25 25 25 25 25 25 25 25 25 25 25 25 25 25 25 25 191 201 202 188 188 193 186 195 196 204 201 193 194 170 193 195 179 211 174 190 182 186 193
200 200 200 200 200 200 200 200 200 200 200 200 200 200 200 200 200 200 200 200 200 200 200 200 200 200 200 200 200 200 200 190 200 200 200 200 200 200 200 200 200 200 200 200 200 200 200 25 25 69 27 59 13 25 25 25 25 25 25 25 25 25 52 25 19 25 72 25 25 25 25 25 25 25 175 25 188 185 184 195 188 196 191 204 194 209 202 208 184 196 198 193 196 200 198 193 197 196 195 200
200 200 200 200 200 200 200 200 200 200 200 200 200 142 200 200 200 200 200 200 200 200 200 200 200 200 200 200 200 200 200 200 200 200 200 200 200 202 200 202 200 202 200 199 200 200 200 200 200 200 200 200 200 25 25 25 25 25 25 25 25 25 25 25 25 25 25 25 25 25 25 25 25 25 180 193 188 189 192 209 211 196 213 194 200 191 198 195 193 190 195 199 192 192 197 209 194 210 201 204
147 200 200 200 200 200 200 200 200 142 200 200 200 136 142 147 200 140 200 200 144 200 145 200 200 200 200 200 146 200 200 200 200 200 200 200 200 200 200 200 190 200 200 200 200 200 200 200 200 200 200 200 200 200 200 200 25 200 25 25 25 25 25 25 25 25 25 25 25 25 25 180 191 184 200 186 188 182 197 182 196 200 184 197 195 192 199 181 194 186 206 187 215 204 192 191 207 206 206 201
200 200 200 200 200 200 200 200 139 136 136 142 144 142 137 135 126 143 137 200 146 132 200 200 144 200 200 144 142 200 200 200 200 200 200 200 200 200 200 190 200 189 200 200 195 200 200 200 204 200 203 200 199 196 200 190 189 193 200 200 200 191 200 196 200 201 200 200 189 192 25 175 200 198 196 193 187 200 204 196 195 208 198 179 200 190 200 211 198 216 206 207 197 215 183 202 191 202 185 203
145 146 137 142 143 133 140 141 141 141 139 138 138 148 144 143 131 112 140 124 200 133 131 139 141 143 147 142 137 131 131 142 200 200 200 200 200 144 200 200 200 142 200 200 200 200 200 200 200 200 192 200 200 200 200 200 200 200 200 192 200 200 200 200 200 200 196 191 191 188 185 196 182 201 188 202 197 206 183 196 196 190 186 194 187 203 200 200 188 190 186 170 195 188 194 194 188 191 191 199
128 139 131 134 134 130 136 138 131 136 141 127 125 135 136 136 161 147 131 146 139 200 136 146 132 130 138 138 136 131 132 200 200 147 140 200 200 200 138 200 200 200 200 200 200 200 200 200 191 200 200 200 200 200 200 200 200 200 200 200 200 196 200 196 200 211 200 196 208 204 189 202 198 201 191 179 197 194 196 207 194 209 189 215 214 207 203 197 208 203 201 201 192 195 184 192 192 198 196 197
133 151 140 136 134 137 146 150 143 140 147 133 142 151 146 138 160 147 125 200 200 121 145 150 142 144 151 147 141 140 131 141 200 200 200 140 200 134 200 143 200 200 200 200 200 200 200 200 200 200 200 200 200 192 200 189 200 200 200 191 200 193 200 205 200 198 199 199 203 196 193 200 200 194 205 195 209 208 216 196 218 196 198 194 200 200 209 205 197 200 215 205 199 196 186 207 179 200 190 206
140 137 118 133 134 120 118 132 142 135 141 132 143 153 141 133 125 142 200 129 124 133 147 130 134 140 149 150 144 152 134 140 140 200 134 200 132 200 138 200 200 200 200 143 200 200 200 200 200 200 200 200 200 200 200 200 200 200 200 193 200 205 200 202 200 195 200 200 194 193 189 189 207 199 198 199 193 204 208 195 194 190 197 196 193 215 200 200 194 200 193 200 208 189 188 191 182 185 196 204
116 136 120 125 140 150 133 110 131 131 141 131 126 134 125 129 141 128 129 127 130 124 138 129 148 146 148 151 143 151 131 141 127 200 200 147 200 123 146 200 200 200 200 200 200 200 200 200 200 200 200 200 200 200 200 200 200 200 200 191 200 194 200 200 200 200 205 200 200 200 191 189 197 196 189 196 194 196 197 210 195 198 199 200 200 195 190 200 200 194 200 191 218 183 204 197 191 192 176 188
99 126 136 145 148 133 126 127 131 123 131 104 111 113 121 122 125 104 121 136 143 133 132 148 152 150 145 144 144 134 126 123 144 200 70 200 121 200 115 200 200 200 200 145 200 128 200 200 200 200 200 200 192 200 200 200 200 200 200 200 200 200 200 200 200 200 200 200 200 200 200 200 197 201 200 195 200 195 200 200 204 197 191 200 200 200 200 191 190 200 200 200 199 194 200 191 188 192 166 192
99 124 129 133 134 122 121 125 117 108 113 95 101 105 109 113 124 109 125 133 139 133 131 141 139 146 148 154 148 134 123 120 122 200 200 145 200 137 200 200 200 200 200 200 131 200 144 200 200 200 200 200 143 200 200 200 200 200 200 200 200 200 200 200 200 200 200 200 200 200 200 200 191 200 200 200 200 200 200 200 195 189 200 200 200 200 200 200 200 200 200 200 200 192 189 191 189 195 175 192
110 135 135 136 135 123 128 134 132 123 125 118 121 128 127 134 123 114 129 129 134 133 130 134 136 150 150 159 145 134 126 130 139 200 118 200 133 200 145 200 200 200 200 124 200 90 200 133 200 104 200 122 200 140 200 138 143 200 131 200 142 200 133 200 200 200 200 200 200 200 200 200 200 200 200 200 200 200 200 200 200 200 200 200 192 191 196 190 200 200 200 200 200 194 181 197 187 196 184 191
