P2
# Imagem criada pelo lab13
128 96
255
255 255 255 255 255 255 255 255 255 255 255 255 255 255 255 255 255 255 255 255 255 255 255 255 255 255 255 255 255 255 255 255 255 255 255 255 255 255 255 255 255 255 255 255 255 255 255 255 255 255 255 255 255 255 255 255 255 255 255 255 255 255 255 255 255 255 255 255 255 255 255 255 255 255 255 255 255 255 255 255 255 255 255 255 255 255 255 255 255 255 255 255 255 255 255 255 255 255 255 255 255 255 255 255 255 255 255 255 255 255 255 255 255 255 255 255 255 255 255 255 255 255 255 255 255 255 255 255
255 255 255 255 255 255 255 255 255 255 255 255 255 255 255 255 255 255 255 255 255 255 255 255 255 255 255 255 255 255 255 255 255 255 255 255 255 255 255 255 255 255 255 255 255 255 255 255 255 255 255 255 255 255 255 255 255 255 255 255 255 255 255 255 255 255 255 255 255 255 255 255 255 255 255 255 255 255 255 255 255 255 255 255 255 255 255 255 255 255 255 255 255 255 255 255 255 255 255 255 255 255 255 255 255 255 255 255 255 255 255 255 255 255 255 255 255 255 255 255 255 255 255 255 255 255 255 255
255 255 255 255 255 255 255 255 255 255 255 255 255 255 255 255 255 255 255 255 255 255 255 255 255 255 255 255 255 255 255 255 255 255 255 255 255 255 255 255 255 255 255 255 255 255 255 255 255 255 255 255 255 255 255 255 255 255 255 255 255 255 255 255 255 255 255 255 255 255 255 255 255 255 255 255 255 255 255 255 255 255 255 255 255 255 255 255 255 255 255 255 255 255 255 255 255 255 255 255 255 255 255 255 255 255 255 255 255 255 255 255 255 255 255 255 255 255 255 255 255 255 255 255 255 255 255 255
255 255 255 255 255 255 255 255 255 255 255 255 255 255 255 255 255 255 255 255 255 255 255 255 255 255 255 255 255 255 255 255 255 255 255 255 255 255 255 255 255 255 255 255 255 255 255 255 255 166 255 255 255 255 255 255 255 255 255 255 255 255 255 255 255 255 255 255 255 255 255 255 255 255 255 255 255 255 255 255 255 255 255 255 255 255 255 255 255 255 255 255 255 255 255 255 255 255 255 255 255 255 255 255 255 255 255 255 255 255 255 255 255 255 255 255 255 255 255 255 255 255 255 255 255 255 255 255
255 255 255 255 255 255 255 255 255 255 255 255 255 255 255 255 255 255 255 255 255 255 255 255 255 255 255 255 255 255 255 255 255 255 255 255 255 255 255 255 255 255 255 255 255 255 255 255 255 255 255 255 255 255 255 255 255 255 255 166 158 158 255 255 255 255 255 255 255 255 255 255 255 255 255 255 255 255 255 255 255 255 255 255 255 255 255 255 255 255 255 255 255 255 255 255 255 255 255 255 255 255 255 255 255 255 255 255 255 255 255 255 255 255 255 255 255 255 255 255 255 255 255 255 255 255 255 255
255 255 255 255 255 255 255 255 255 255 255 255 255 255 255 255 255 255 255 255 255 255 255 255 255 255 255 255 255 255 255 255 255 255 255 255 255 255 255 255 255 255 255 255 255 255 255 255 255 255 255 255 255 255 255 255 130 102 179 255 255 160 181 255 255 255 255 255 255 255 255 255 255 255 255 255 255 255 255 255 255 255 255 255 255 255 255 255 255 255 255 255 255 255 255 255 255 255 255 255 255 255 255 255 255 255 255 255 255 255 255 255 255 255 255 255 255 255 255 255 255 255 255 255 255 255 255 255
255 255 255 255 255 255 255 255 255 255 255 255 255 255 255 255 255 255 255 255 255 255 255 255 255 255 255 255 255 255 255 255 255 255 255 255 255 255 255 255 255 255 255 255 255 255 163 255 255 255 255 255 255 255 255 118 150 255 255 255 255 255 138 255 255 255 255 255 255 179 141 97 63 83 54 126 255 255 255 233 255 255 255 255 255 255 255 255 255 255 255 255 255 255 255 255 255 255 255 255 255 255 255 255 255 255 255 255 255 255 255 255 255 255 255 255 255 255 255 255 255 255 255 255 255 255 255 255
255 255 255 255 255 255 255 255 255 255 255 255 255 255 255 255 255 255 255 255 255 255 255 255 255 255 255 255 255 255 255 255 255 255 255 255 255 255 255 255 255 255 255 255 255 255 160 176 255 255 255 255 255 255 104 136 255 255 255 255 168 116 72 110 114 102 100 98 99 71 57 63 68 77 38 32 121 157 255 255 255 255 255 255 255 255 255 255 255 255 255 255 255 255 255 255 255 255 255 255 255 255 255 255 255 255 255 255 255 255 255 255 255 255 255 255 255 255 255 255 255 255 255 255 255 255 255 255
255 255 255 255 255 255 255 255 255 255 255 255 255 255 255 255 255 255 255 255 255 255 255 255 255 255 255 255 255 255 255 255 255 255 255 255 255 255 255 255 255 255 255 255 255 255 178 255 167 255 255 255 255 134 99 179 255 167 135 130 112 154 143 163 156 156 145 105 95 73 49 133 135 115 119 72 76 121 127 151 180 255 255 255 255 255 255 255 255 255 255 255 255 255 255 255 255 255 255 255 255 255 255 255 255 255 255 255 255 255 255 255 255 255 255 255 255 255 255 255 255 255 255 255 255 255 255 255
255 255 255 255 255 255 255 255 255 255 255 255 255 255 255 255 255 255 255 255 255 255 255 255 255 255 255 255 255 255 255 255 255 255 255 255 255 255 255 255 255 255 255 255 255 255 255 177 160 255 255 255 142 55 142 154 152 167 133 58 110 84 143 147 147 120 88 110 62 44 40 55 51 56 62 45 42 51 83 96 88 131 162 255 255 255 255 255 255 255 255 255 255 255 255 255 255 255 255 255 255 255 255 255 255 255 255 255 255 255 255 255 255 255 255 255 255 255 255 255 255 255 255 255 255 255 255 255
255 255 255 255 255 255 255 255 255 255 255 255 255 255 255 255 255 255 255 255 255 255 255 255 255 255 255 255 255 255 255 255 255 255 255 255 255 255 255 255 255 255 255 255 255 255 255 147 134 145 151 141 117 81 173 193 179 161 78 99 35 41 43 40 49 70 71 58 46 31 29 19 25 25 18 23 43 49 61 56 71 60 82 113 255 255 255 255 255 255 255 255 255 255 255 255 255 255 255 255 255 255 255 255 255 255 255 255 255 255 255 255 255 255 255 255 255 255 255 255 255 255 255 255 255 255 255 255
255 255 255 255 255 255 255 255 255 255 255 255 255 255 255 255 255 255 255 255 255 255 255 255 255 255 255 255 255 255 255 255 255 255 255 255 255 255 255 255 255 255 255 255 255 255 255 152 117 156 103 77 42 113 110 161 147 70 79 70 60 51 15 7 4 9 15 8 5 2 20 7 11 1 11 19 8 19 36 47 59 80 67 53 91 179 255 255 255 255 255 255 255 255 255 255 255 255 255 255 255 255 255 255 255 255 255 255 255 255 255 255 255 255 255 255 255 255 255 255 255 255 255 255 255 255 255 255
255 255 255 255 255 255 255 255 255 255 255 255 255 255 255 255 255 255 255 255 255 255 255 255 255 255 255 255 255 255 255 255 255 255 255 255 255 255 255 255 255 255 255 255 255 255 172 145 123 106 103 68 76 121 93 87 81 59 60 33 32 11 12 30 38 17 28 8 24 2 11 3 4 4 4 7 16 20 22 27 44 37 43 57 64 80 177 255 255 255 255 255 255 255 255 255 255 255 255 255 255 255 255 255 255 255 255 255 255 255 255 255 255 255 255 255 255 255 255 255 255 255 255 255 255 255 255 255
255 255 255 255 255 255 255 255 255 255 255 255 255 255 255 255 255 255 255 255 255 255 255 255 255 255 255 255 255 255 255 255 255 255 255 255 255 255 255 255 255 255 255 255 166 181 168 122 112 69 102 44 54 50 27 19 38 51 52 35 36 30 28 35 23 10 21 11 5 2 4 21 1 4 3 3 2 22 50 43 60 58 47 22 51 74 93 255 255 255 255 255 255 255 233 255 255 255 255 255 255 255 255 255 255 255 255 255 255 255 255 255 255 255 255 255 255 255 255 255 255 255 255 255 255 255 255 255
255 255 255 255 255 255 255 255 255 255 255 255 255 255 255 255 255 255 255 255 255 255 255 255 255 255 255 255 255 255 255 255 255 255 255 255 255 255 255 255 255 255 156 109 95 73 64 80 47 35 23 20 30 19 6 7 5 5 4 3 10 29 45 61 50 67 51 13 2 1 1 3 2 2 4 9 4 3 12 11 35 57 58 31 24 55 63 142 255 255 255 255 255 255 233 233 255 255 255 255 255 255 255 255 233 233 255 255 255 255 255 255 255 255 255 255 255 255 255 255 255 255 255 255 255 255 255 255
255 255 255 255 255 255 255 255 255 255 255 255 255 255 255 255 255 255 255 255 255 255 255 255 255 255 255 255 255 255 255 255 255 255 255 255 255 176 160 144 120 147 165 115 110 52 38 21 30 39 17 11 6 5 2 3 3 8 15 13 18 39 47 36 29 29 8 5 5 2 0 2 0 1 6 28 54 22 2 5 13 44 54 33 23 19 51 81 255 255 255 255 255 255 233 233 255 255 233 233 233 233 233 233 233 233 255 255 255 255 255 255 255 255 255 255 255 255 255 255 255 255 255 255 255 255 255 255
255 255 255 255 255 255 255 255 255 255 255 255 255 255 255 255 255 255 255 255 255 255 255 255 255 255 255 255 255 255 255 255 255 255 255 255 255 138 119 121 153 179 166 81 27 52 66 22 12 15 5 2 2 0 1 0 2 2 12 44 51 30 35 31 11 2 4 6 0 0 0 0 1 1 5 19 44 69 43 28 27 21 11 6 10 4 24 48 147 255 255 255 255 255 255 233 233 233 233 233 233 233 233 233 233 255 255 255 255 255 255 255 255 255 255 255 255 255 255 255 255 255 255 255 255 255 255 255
255 255 255 255 255 255 255 255 255 255 255 255 255 255 255 255 255 255 255 255 255 255 255 255 255 255 255 255 255 255 255 255 255 255 255 181 148 109 127 192 218 197 111 63 56 29 42 42 4 1 0 1 1 1 3 4 9 10 7 24 54 38 38 19 2 1 1 1 0 0 0 0 1 1 1 10 47 54 70 39 33 44 43 34 21 23 8 35 91 255 255 255 255 233 255 233 233 233 233 233 233 233 233 233 233 233 255 255 255 255 255 255 255 255 255 255 255 255 255 255 255 255 255 255 255 255 255 255
255 255 255 255 255 255 255 255 255 255 255 255 255 255 255 255 255 255 255 255 255 255 255 255 255 255 255 255 255 255 255 255 255 255 255 133 135 127 161 188 180 108 23 67 41 22 17 15 8 1 1 1 0 0 1 2 3 3 12 16 23 31 26 3 3 1 0 0 0 0 0 0 1 1 0 1 6 39 41 76 41 55 65 47 24 12 5 15 43 148 255 255 255 233 255 233 233 233 233 233 233 233 233 233 233 233 233 255 255 255 255 255 255 255 255 255 255 255 255 255 255 255 255 255 255 255 255 255
255 255 255 255 255 255 255 255 255 255 255 255 255 255 255 255 255 255 255 255 255 255 255 255 255 255 255 255 179 255 255 255 255 255 130 151 162 130 92 112 73 42 5 34 21 7 3 8 5 1 11 9 1 0 0 0 2 1 1 3 3 3 3 2 2 0 1 1 0 0 0 0 1 1 1 1 1 1 10 29 39 25 57 62 51 24 6 4 20 75 255 255 255 255 255 233 233 233 233 233 233 233 233 233 233 233 233 233 255 255 255 255 233 255 255 255 255 255 255 255 255 255 255 255 255 255 255 255
255 255 255 255 255 255 255 255 255 255 255 255 255 255 255 255 255 255 255 255 255 255 255 255 255 255 255 255 255 153 255 255 255 157 92 115 70 66 80 122 34 13 7 47 16 1 1 5 1 1 3 15 1 1 0 0 0 0 0 0 1 1 1 1 2 5 25 19 6 14 9 3 2 4 0 1 2 1 1 2 7 10 33 63 59 36 25 25 24 55 174 255 255 255 255 233 233 233 233 233 233 233 233 233 233 233 233 255 255 255 255 255 233 255 255 255 255 255 255 255 255 255 255 255 255 255 255 255
255 255 255 255 255 255 255 255 255 255 255 255 255 255 255 255 255 255 255 255 255 255 255 255 255 255 255 255 255 255 160 255 255 104 61 135 107 78 84 124 48 3 2 2 2 6 1 1 0 0 1 2 0 0 0 0 0 0 1 1 0 0 0 0 5 17 16 18 40 42 25 17 13 3 1 1 1 0 0 1 2 1 9 51 73 59 77 104 57 64 168 255 255 255 233 233 233 233 233 233 233 233 233 233 233 233 233 233 233 233 233 233 233 233 255 255 255 255 255 255 255 255 255 255 255 255 255 255
255 255 255 255 255 255 255 255 255 255 255 255 255 255 255 255 255 255 255 255 255 255 255 255 255 255 255 255 255 255 166 172 166 66 18 22 75 64 125 63 31 3 1 3 3 4 2 5 1 0 0 3 0 0 0 1 0 0 1 1 1 1 1 2 2 4 15 14 23 32 42 29 10 4 4 2 1 1 1 1 14 10 11 23 35 50 97 169 154 120 255 255 255 255 233 233 233 233 233 233 233 234 234 234 233 233 233 233 233 233 233 233 233 233 233 255 255 255 255 255 255 255 255 255 255 255 255 255
255 255 255 255 255 255 255 255 255 255 255 255 255 255 255 255 255 255 255 255 255 255 255 255 255 255 255 255 255 255 255 139 124 64 27 24 3 5 20 10 13 2 3 3 0 0 1 2 0 4 1 0 0 0 0 1 0 0 0 0 1 2 13 27 34 5 4 6 10 13 17 26 17 16 16 31 43 52 34 29 64 69 71 92 94 66 84 167 175 165 255 255 255 255 233 234 233 233 233 233 234 234 234 234 234 233 233 233 233 233 233 233 233 233 233 233 255 255 255 255 255 255 255 255 255 255 255 255
255 255 255 255 255 255 255 255 255 255 255 255 255 255 255 255 255 255 255 255 255 255 255 255 255 255 255 255 255 255 255 124 117 82 16 6 5 17 17 1 5 1 1 1 1 2 1 2 21 24 2 0 0 0 0 0 0 0 0 0 1 11 37 66 61 32 24 17 6 3 1 3 2 1 6 29 53 44 36 36 61 93 151 188 159 105 88 151 180 255 255 255 255 255 233 234 234 234 234 234 234 234 234 234 234 234 233 233 233 233 233 233 233 233 233 255 255 255 255 255 255 255 255 255 255 255 255 255
255 255 255 255 255 255 255 255 255 255 255 255 255 255 255 255 255 255 255 255 255 255 255 255 255 255 255 255 255 255 175 104 64 43 29 8 3 13 3 2 1 2 1 1 3 3 1 23 27 4 1 1 0 0 0 0 0 0 0 0 2 6 38 61 82 61 15 6 1 1 10 50 31 2 1 7 11 43 97 111 108 146 143 131 115 108 101 157 255 255 255 255 255 255 234 234 234 234 234 234 234 234 234 234 234 234 234 233 233 233 233 233 233 233 233 233 255 255 255 255 255 255 255 255 255 255 255 255
255 255 255 255 255 255 255 255 255 255 255 255 255 255 255 255 255 255 255 255 255 255 255 255 255 255 255 255 255 255 255 157 75 64 40 4 17 10 1 1 2 3 4 3 4 16 14 17 3 1 2 1 0 0 0 0 0 0 0 0 1 4 30 45 26 11 10 6 5 5 14 23 11 9 7 5 17 30 80 123 98 93 94 103 80 57 101 173 255 255 255 255 255 255 233 234 234 234 234 234 234 234 234 234 234 234 234 234 233 233 233 233 233 233 233 233 233 233 255 255 255 255 255 255 255 255 255 255
255 255 255 255 255 255 255 255 255 255 255 255 255 255 255 255 255 255 255 255 255 255 255 255 255 255 255 255 255 255 162 99 76 60 19 16 32 13 1 1 2 18 20 3 3 5 32 20 1 1 1 1 0 0 0 0 0 0 0 0 1 1 3 23 46 25 4 3 6 6 5 7 2 5 4 15 35 51 52 62 67 61 93 144 149 110 122 177 255 255 255 255 255 255 233 234 234 234 234 234 234 234 234 234 234 234 234 234 233 233 233 233 234 233 233 233 233 233 255 255 255 255 255 255 255 255 255 255
255 255 255 255 255 255 255 255 255 255 255 255 255 255 255 255 255 255 255 255 255 255 255 255 255 255 255 255 255 142 154 138 90 63 6 12 1 0 0 1 3 11 6 2 3 11 22 3 1 1 4 2 1 0 1 2 1 0 0 0 1 1 5 12 8 1 1 4 9 32 11 13 1 2 1 3 10 37 69 63 37 40 83 119 111 100 139 165 255 255 255 255 255 255 255 234 234 234 234 234 234 234 234 234 234 234 234 234 234 234 233 233 234 234 233 233 233 233 233 255 255 255 255 255 255 255 255 255
255 255 255 255 255 255 255 255 255 255 255 255 255 255 255 255 255 255 255 255 255 255 255 255 255 255 255 255 255 121 255 170 84 14 3 1 1 1 1 2 3 2 1 1 0 5 4 3 1 10 15 2 0 0 0 9 2 0 0 0 1 1 1 1 0 0 0 0 11 31 26 30 31 15 4 8 21 26 31 43 15 32 85 144 112 110 119 152 255 255 255 255 255 255 233 233 234 234 234 234 234 234 234 234 234 234 234 234 234 234 233 233 234 234 234 233 233 233 233 255 255 255 255 255 255 255 255 255
255 255 255 255 255 255 255 255 255 255 255 255 255 255 255 255 255 255 255 255 255 255 255 255 255 255 255 255 255 255 132 60 38 50 1 2 2 0 0 1 1 1 1 2 2 5 1 1 17 17 2 3 1 0 1 2 1 0 0 0 0 0 0 0 0 0 0 0 2 3 6 21 27 34 37 21 41 58 39 25 27 49 111 134 86 101 132 137 255 255 255 255 255 255 255 234 234 234 234 234 234 234 234 234 234 234 234 234 234 234 234 234 234 234 234 233 234 234 233 255 255 255 255 255 255 255 255 255
255 255 255 255 255 255 255 255 255 255 255 255 255 255 255 255 255 255 255 255 255 255 255 255 255 255 255 255 255 255 175 46 61 54 1 15 5 0 0 1 2 7 2 11 5 3 1 3 9 2 1 3 1 1 2 1 1 0 0 0 0 0 0 1 0 0 0 0 1 2 1 2 7 17 30 63 66 60 40 22 26 45 105 73 59 111 119 170 255 255 255 255 255 255 255 233 234 234 234 234 234 234 234 234 234 234 234 234 234 234 234 234 234 234 234 234 234 234 233 233 255 255 255 255 255 255 255 255
255 255 255 255 255 255 255 255 255 255 255 255 255 255 255 255 255 255 255 255 255 255 255 255 255 255 255 180 91 53 104 85 3 1 0 3 0 0 0 0 2 3 2 6 1 0 1 3 17 3 1 2 0 0 0 0 1 3 1 0 0 0 0 0 0 0 0 1 0 0 0 1 1 7 29 63 87 78 43 22 5 13 39 43 63 87 138 255 255 255 255 255 255 255 255 255 233 234 234 234 234 234 234 234 234 234 234 234 234 234 234 234 234 234 234 234 233 233 233 233 255 255 255 255 255 255 255 255
255 255 255 255 255 255 255 255 255 255 255 255 255 255 255 255 255 255 255 255 255 255 255 255 255 255 152 58 23 49 92 62 1 0 0 0 0 0 0 0 1 2 1 1 0 0 1 6 24 2 0 0 0 0 0 0 1 2 0 0 0 0 0 0 0 0 1 1 0 1 0 0 2 6 46 82 87 70 49 14 2 2 7 38 61 94 169 255 255 255 255 255 162 140 169 255 234 234 234 233 234 234 234 234 234 234 234 234 234 234 234 234 234 234 234 234 234 233 233 233 255 255 255 255 255 255 255 255
255 255 255 255 255 255 255 255 255 255 255 255 255 255 255 255 255 255 255 255 255 255 255 255 255 156 74 34 5 2 2 2 0 0 1 0 0 0 0 0 2 1 0 0 0 0 0 6 31 3 1 0 0 0 0 0 0 0 0 0 0 0 0 0 0 2 9 8 4 1 1 1 2 1 15 67 79 51 25 16 2 9 31 60 89 146 255 255 255 255 255 145 97 71 48 171 233 234 234 234 235 235 235 235 235 235 235 235 234 234 234 234 234 234 234 234 234 234 233 233 233 233 255 255 255 255 255 255
255 255 255 255 255 255 255 255 255 255 255 255 255 255 255 255 255 255 255 255 255 255 255 255 255 76 47 11 3 1 2 2 1 3 0 0 0 0 0 0 3 1 1 0 0 0 0 7 29 3 2 1 0 0 0 0 0 0 0 0 0 0 0 0 0 0 1 4 6 10 4 2 5 4 3 11 36 34 6 2 22 46 64 80 135 255 255 255 255 255 157 113 155 255 104 134 255 234 234 235 235 235 235 235 235 235 235 235 234 234 234 234 234 234 234 234 234 234 234 233 233 233 255 255 255 255 255 255
255 255 255 255 255 255 255 255 255 255 255 255 255 255 255 255 255 255 255 255 255 255 255 255 177 38 16 1 1 0 0 0 2 3 0 0 0 0 1 1 2 1 1 0 0 0 0 0 4 1 1 0 0 0 0 0 0 0 0 0 0 0 1 0 0 0 0 1 1 2 6 19 17 11 5 3 3 3 10 32 58 71 94 130 255 255 255 255 255 153 138 255 255 255 128 165 255 233 255 233 233 234 234 235 235 235 235 235 234 234 234 234 235 234 234 234 234 234 234 233 233 233 255 255 255 255 255 255
255 255 255 255 255 255 255 255 255 255 255 255 255 255 255 255 255 255 255 255 255 255 255 255 171 28 3 1 0 0 0 0 1 2 0 0 1 0 2 1 4 1 0 0 0 0 0 0 0 1 1 0 0 0 0 0 0 0 0 0 0 0 1 0 0 0 0 2 10 27 43 43 27 21 23 13 5 9 42 49 63 107 150 255 255 255 255 255 147 162 255 255 255 168 255 255 255 255 255 255 255 255 255 234 235 235 235 235 234 234 234 234 235 235 234 234 234 234 234 233 233 233 255 255 255 255 255 255
255 255 255 255 255 255 255 255 255 255 255 255 255 255 255 255 255 255 255 255 255 255 255 255 255 39 3 1 0 0 0 1 0 0 0 0 1 1 1 13 11 2 1 0 0 0 0 0 0 0 2 5 1 0 0 0 0 0 0 1 0 0 0 0 0 0 0 0 5 13 40 70 70 51 13 4 12 25 54 74 118 165 255 255 255 255 255 171 255 255 255 255 111 108 255 255 236 234 234 235 235 235 255 233 235 235 235 235 235 235 235 235 235 235 234 234 234 234 234 233 233 233 233 255 255 255 255 255
255 255 255 255 255 255 255 255 255 255 255 255 255 255 255 255 255 255 255 255 255 255 255 255 255 70 1 0 0 0 2 5 0 0 0 0 1 0 0 10 5 0 0 0 0 0 0 0 0 0 1 5 11 4 0 0 0 0 0 1 2 2 2 2 2 1 0 1 3 4 11 42 60 47 10 9 39 69 91 113 174 255 255 255 255 255 255 255 255 255 165 91 55 75 115 168 234 233 234 235 234 235 233 255 235 235 235 235 235 235 235 235 235 235 235 234 234 234 234 233 234 233 233 255 255 255 255 255
255 255 255 255 255 255 255 255 255 255 255 255 255 255 255 255 255 255 255 255 255 255 255 255 255 132 14 38 71 3 1 3 1 0 1 1 0 0 0 5 10 1 2 0 0 0 0 0 0 0 0 0 2 4 0 0 0 0 0 0 3 4 4 18 44 41 12 2 2 5 8 10 13 18 16 39 73 91 98 155 255 255 255 255 255 255 255 255 255 156 97 97 66 107 255 255 255 233 255 234 235 235 234 255 235 235 235 235 235 235 235 235 235 235 235 234 234 234 234 234 234 234 233 233 255 255 255 255
255 255 255 255 255 255 255 255 255 255 255 255 255 255 255 255 255 255 255 255 255 255 255 255 255 255 105 41 58 1 1 1 0 2 2 0 0 0 0 3 3 5 2 0 0 0 0 0 0 0 0 0 0 1 1 1 0 0 0 0 2 12 17 16 25 27 12 14 11 5 2 3 10 27 30 71 78 78 110 171 255 255 255 255 255 255 255 255 255 144 105 70 61 126 255 255 255 255 237 255 234 235 235 255 235 235 235 235 235 235 235 235 235 235 235 234 234 234 234 234 234 234 233 233 255 255 255 255
255 255 255 255 255 255 255 255 255 255 255 255 255 255 255 255 255 255 255 255 255 255 255 255 255 255 155 20 2 0 2 1 1 4 2 0 0 0 0 1 3 3 1 0 0 0 0 0 0 0 0 0 0 0 1 0 0 0 0 1 1 1 4 4 2 1 1 3 8 17 21 13 17 19 28 60 86 80 107 173 255 255 255 255 255 255 255 255 255 255 255 169 132 134 255 255 255 233 240 235 255 234 255 255 235 235 235 235 235 235 235 235 235 235 235 234 234 234 234 234 234 234 233 233 255 255 255 255
255 255 255 255 255 255 255 255 255 255 255 255 255 255 255 255 255 255 255 255 255 255 255 255 255 255 121 3 1 2 1 1 1 1 0 1 0 0 1 0 1 0 0 1 0 0 0 0 0 0 0 0 0 0 0 0 0 0 1 8 17 13 8 4 2 1 1 1 1 3 18 31 30 27 40 83 97 69 101 158 255 255 255 255 255 255 255 255 255 255 255 255 255 255 255 255 234 237 234 233 255 255 255 255 235 235 235 235 235 235 235 235 235 235 235 234 234 234 234 234 234 234 233 233 255 255 255 255
255 255 255 255 255 255 255 255 255 255 255 255 255 255 255 255 255 255 255 255 255 255 255 255 255 176 113 21 0 0 0 1 0 0 0 0 1 0 7 5 0 1 1 1 0 0 0 0 0 0 0 0 1 1 1 1 1 0 1 2 2 2 2 1 2 7 8 7 6 3 16 34 38 55 88 105 91 51 93 141 255 255 255 255 255 255 255 255 255 255 255 255 255 255 255 255 255 235 233 255 255 255 255 235 235 235 235 235 235 235 235 235 234 235 235 235 234 234 234 234 234 234 233 233 233 255 255 255
255 255 255 255 255 255 255 255 255 255 255 255 255 255 255 255 255 255 255 255 255 255 255 255 171 174 114 4 0 0 0 1 0 0 0 0 1 2 2 1 1 1 0 1 0 0 0 0 0 0 0 0 1 1 1 0 1 0 0 0 1 1 4 7 10 17 20 23 27 23 28 34 49 85 97 96 75 45 77 126 171 255 255 255 255 255 255 255 255 255 255 255 255 255 255 255 255 255 255 255 255 255 255 235 235 235 235 235 235 235 235 235 235 235 235 235 234 234 234 234 234 234 233 233 233 233 255 255
255 255 255 255 255 255 255 255 255 255 255 255 255 255 255 255 255 255 255 255 255 255 255 255 162 154 97 1 0 0 0 0 0 0 0 0 1 0 1 1 1 2 9 4 0 0 0 0 0 0 0 0 1 4 13 6 2 2 1 0 0 1 4 18 34 44 49 49 46 42 64 80 76 73 76 84 68 35 86 119 160 255 255 255 255 255 255 255 255 255 233 255 255 255 255 255 255 255 255 255 255 236 255 233 235 235 235 235 235 235 235 235 235 235 235 235 234 234 234 234 234 234 233 233 233 233 255 255
255 255 255 255 255 255 255 255 255 255 255 255 255 255 255 255 255 255 255 255 255 255 255 255 255 157 42 1 0 0 0 0 0 0 0 0 1 2 1 1 1 9 14 2 0 0 0 0 0 0 0 0 2 9 9 11 6 8 6 1 0 1 4 16 35 46 50 87 92 128 135 125 119 92 66 57 56 32 63 111 163 255 255 255 255 255 255 255 255 255 237 237 235 255 255 255 255 255 255 255 255 255 255 255 235 235 235 235 235 235 235 235 235 235 235 234 234 234 234 234 234 234 233 233 233 255 255 255
255 255 255 255 255 255 255 255 255 255 255 255 255 255 255 255 255 255 255 255 255 255 255 255 180 104 11 2 1 0 0 0 0 0 0 0 0 0 0 0 3 15 6 1 0 0 0 0 0 0 0 0 0 3 4 4 1 1 0 0 1 0 2 4 9 21 89 125 59 125 156 150 141 121 78 55 36 27 56 98 149 176 255 255 255 255 255 255 255 234 239 242 239 234 255 255 255 255 255 255 255 167 255 255 236 235 235 235 235 235 235 235 235 235 235 235 234 234 234 234 234 234 233 233 255 255 255 255
255 255 255 255 255 255 255 255 255 255 255 255 255 255 255 255 255 255 255 255 255 255 255 255 152 30 16 2 0 0 0 0 0 0 0 0 0 0 0 0 7 11 0 1 0 0 0 0 0 0 0 0 1 0 3 7 3 1 0 0 1 0 4 14 25 55 127 156 104 107 161 141 147 127 101 73 44 32 67 107 151 170 173 173 175 169 255 255 255 234 241 242 240 235 255 255 255 155 178 255 152 138 255 255 234 235 235 236 235 235 235 235 235 235 235 235 234 234 234 234 234 234 233 233 255 255 255 255
255 255 255 255 255 255 255 255 255 255 255 255 255 255 255 255 255 255 255 255 255 255 255 169 72 10 4 3 2 1 0 0 0 0 0 0 0 0 0 0 3 2 0 2 0 0 0 0 0 0 0 0 1 3 11 7 3 2 1 1 1 2 3 15 41 106 163 199 154 68 142 132 182 155 124 89 62 63 80 119 157 166 166 165 157 154 169 255 255 255 237 240 239 237 235 255 255 180 255 255 255 255 236 235 233 234 234 235 235 235 235 235 235 235 235 235 234 234 234 234 234 234 233 233 255 255 255 255
255 255 255 255 255 255 255 255 255 255 255 255 255 255 255 255 255 255 255 255 255 255 255 121 22 6 3 1 4 3 0 0 0 0 0 0 0 0 0 0 0 1 0 1 0 0 0 0 1 1 1 2 6 9 5 2 1 1 0 0 1 6 14 23 62 160 175 222 122 71 85 92 206 200 150 96 85 98 109 131 167 163 165 153 146 146 156 173 255 255 255 236 239 237 237 255 255 255 255 255 235 235 234 236 235 235 235 235 235 235 235 235 235 235 235 235 234 234 234 234 234 234 233 233 255 255 255 255
255 255 255 255 255 255 255 255 255 255 255 255 255 255 255 255 255 255 255 255 255 255 255 108 11 1 0 1 2 16 2 1 1 1 1 0 0 0 0 0 0 0 0 0 0 0 0 1 1 1 2 16 24 10 2 5 1 1 0 0 3 9 19 6 48 154 191 220 133 100 37 62 181 181 126 125 134 119 133 148 169 176 178 164 152 145 151 162 255 255 255 255 234 235 236 255 255 255 255 255 233 237 235 236 236 235 235 235 236 235 235 235 235 235 235 235 234 234 234 234 234 234 233 233 255 255 255 255
255 255 255 255 255 255 255 255 255 255 255 255 255 255 255 255 255 255 255 255 255 255 255 59 1 0 0 1 3 13 2 1 1 0 0 0 0 0 0 0 0 0 0 0 0 0 0 1 1 1 3 6 3 0 1 1 0 0 0 1 13 49 29 1 20 115 202 222 171 110 35 34 106 129 144 147 148 137 142 169 180 175 255 179 164 160 156 160 175 255 255 255 255 255 234 255 255 255 255 255 255 235 236 235 236 235 235 236 236 235 235 235 235 235 235 235 234 234 234 234 234 234 233 233 255 255 255 255
255 255 255 255 255 255 255 255 255 255 255 255 255 255 255 255 255 255 255 255 255 255 74 69 4 1 0 0 7 17 5 3 1 0 1 1 0 0 0 0 0 0 0 0 0 0 0 0 1 1 3 4 1 1 0 1 0 0 1 9 56 72 15 2 7 81 185 210 199 132 67 80 114 122 179 126 132 157 162 176 255 255 255 255 178 171 172 170 176 255 255 255 255 255 255 255 255 255 255 255 255 236 236 236 236 236 236 236 236 235 235 235 235 235 235 235 234 234 234 234 234 234 233 233 255 255 255 255
255 255 255 255 255 255 255 255 255 255 255 255 255 255 255 255 255 255 255 255 255 255 95 95 2 2 1 0 12 19 12 2 3 0 1 0 0 0 0 0 0 0 0 0 1 0 0 0 0 0 1 1 1 0 1 1 0 1 9 21 63 41 2 3 8 41 132 192 210 168 120 146 210 225 208 157 139 160 164 255 255 255 255 255 255 255 255 255 255 255 255 255 255 255 255 255 255 255 255 176 255 235 235 236 236 236 236 236 236 235 235 235 235 235 235 235 234 234 234 234 234 234 233 233 255 255 255 255
255 255 255 255 255 255 255 255 255 255 255 255 255 255 255 255 255 255 255 255 255 255 102 81 2 2 8 2 6 11 9 2 1 1 1 1 0 0 0 0 0 0 0 0 1 0 1 0 0 0 0 0 0 1 1 1 3 6 7 42 66 21 4 5 18 29 64 142 205 219 162 139 194 218 161 184 141 159 166 179 255 255 255 255 255 255 255 255 255 255 255 255 255 255 255 255 255 255 163 255 235 236 235 237 235 236 236 236 236 235 235 235 235 235 235 235 234 234 234 234 233 233 233 233 255 255 255 255
255 255 255 255 255 255 255 255 255 255 255 255 255 255 255 255 255 255 255 255 255 255 42 35 4 2 13 19 3 6 4 4 3 4 6 3 0 0 0 0 0 0 0 0 0 0 0 0 0 0 0 0 0 1 1 0 1 2 12 52 53 21 2 4 25 46 48 69 133 182 183 180 209 206 188 207 163 151 163 168 178 255 255 255 255 255 255 255 255 255 255 255 255 255 255 255 255 158 154 175 255 236 236 236 235 236 236 236 236 235 235 235 235 235 235 235 234 234 234 234 233 233 233 233 255 255 255 255
255 255 255 255 255 255 255 255 255 255 255 255 255 255 255 255 255 255 255 255 255 255 32 59 1 3 9 39 21 9 20 23 16 13 12 8 0 0 0 0 0 0 0 0 0 2 1 1 1 0 0 0 1 1 0 0 2 3 18 48 18 2 2 3 20 45 58 58 60 83 109 121 148 173 220 218 146 138 149 166 171 176 255 255 255 255 255 255 255 255 255 255 255 255 255 255 255 255 177 173 255 255 234 236 236 236 236 235 236 235 235 235 235 235 235 235 234 234 234 234 233 233 233 233 255 255 255 255
255 255 255 255 255 255 255 255 255 255 255 255 255 255 255 255 255 255 255 255 255 103 84 36 3 4 8 10 19 23 9 2 3 1 1 1 0 0 0 0 0 0 0 0 1 1 12 11 1 0 1 4 11 7 0 1 1 2 13 28 6 2 2 1 7 27 50 61 69 71 74 91 128 132 143 132 97 127 136 164 165 173 181 255 255 255 255 255 255 255 255 255 255 255 255 255 255 255 255 255 176 255 236 235 236 236 236 235 236 235 235 235 235 235 235 235 234 234 234 234 233 233 233 233 255 255 255 255
255 255 255 255 255 255 255 255 255 255 255 255 255 255 255 255 255 255 255 255 255 79 105 77 11 21 52 12 2 2 1 2 0 0 0 0 0 0 0 0 0 0 0 0 1 1 2 27 37 28 31 40 27 8 0 0 1 1 17 36 5 2 2 2 2 8 29 56 79 93 112 132 158 156 78 48 79 109 130 152 157 169 176 255 255 255 255 255 255 255 255 255 255 255 255 255 255 255 255 255 255 236 235 236 236 235 235 235 235 235 235 235 235 235 234 234 234 234 234 233 233 233 255 255 255 255 255 255
255 255 255 255 255 255 255 255 255 255 255 255 255 255 255 255 255 255 255 255 255 78 102 113 20 21 23 32 9 0 0 1 1 0 0 0 0 0 0 0 0 0 0 0 0 0 0 7 20 34 41 31 7 1 0 1 1 3 27 37 21 4 2 1 0 2 12 36 72 99 129 162 186 168 93 57 69 97 120 140 150 161 168 180 255 255 255 255 255 255 255 255 255 255 255 255 255 255 255 255 235 234 236 236 236 235 235 235 235 235 235 235 235 235 234 234 234 234 234 233 233 233 255 255 255 255 255 255
255 255 255 255 255 255 255 255 255 255 255 255 255 255 255 255 255 255 255 255 255 123 66 124 33 9 11 3 2 0 0 0 0 0 0 0 0 0 0 0 0 0 0 0 0 0 0 0 1 1 1 1 1 0 1 0 1 11 34 43 25 8 11 2 1 0 3 18 50 97 137 181 201 186 113 61 70 87 106 123 135 150 160 173 255 255 255 255 255 255 255 255 255 255 255 255 255 255 255 255 233 237 236 234 236 235 235 235 235 235 235 235 235 235 234 234 234 234 234 233 233 233 255 255 255 255 255 255
255 255 255 255 255 255 255 255 255 255 255 255 255 255 255 255 255 255 255 255 255 255 87 115 77 2 3 2 1 1 1 1 1 1 0 0 0 0 0 0 0 0 0 0 0 1 1 0 1 1 0 1 1 0 0 0 1 10 31 33 28 41 18 4 2 1 2 7 33 71 118 175 203 206 146 79 68 78 96 112 124 142 155 170 180 255 255 255 255 255 255 255 255 255 255 255 255 255 255 255 255 236 236 236 236 235 235 235 235 235 235 235 235 235 234 234 234 234 234 233 233 233 255 255 255 255 255 255
255 255 255 255 255 255 255 255 255 255 255 255 255 255 255 255 255 255 255 255 255 255 127 74 77 1 1 2 3 1 1 0 0 0 0 0 0 0 0 0 0 0 0 1 1 1 0 1 1 2 2 1 1 0 0 1 1 14 45 52 57 44 13 6 6 2 3 11 32 77 123 174 199 205 175 108 74 76 87 105 118 131 147 160 171 255 255 255 255 255 255 255 255 255 255 255 255 255 255 255 255 236 236 236 236 235 235 235 235 235 235 236 235 235 234 234 234 234 234 233 233 233 255 255 255 255 255 255
255 255 255 255 255 255 255 255 255 255 255 255 255 255 255 255 255 255 255 255 255 255 255 109 47 4 0 0 1 1 0 0 0 0 0 0 1 1 1 1 0 0 0 1 3 2 0 0 1 1 0 1 0 0 0 4 28 37 32 17 6 4 2 3 3 2 5 13 30 71 130 182 214 219 206 155 100 83 86 96 111 122 133 145 160 169 177 255 255 255 255 255 255 255 255 255 255 255 255 255 255 235 236 236 236 235 235 235 235 235 235 235 235 235 234 234 234 234 234 233 233 233 255 255 255 255 255 255
255 255 255 255 255 255 255 255 255 255 255 255 255 255 255 255 255 255 255 255 255 255 255 255 85 7 3 0 1 1 1 0 0 0 0 0 1 1 1 1 0 0 0 0 3 6 0 1 3 6 14 12 4 1 7 29 42 40 39 22 9 2 1 1 2 4 6 18 30 70 124 173 202 218 214 184 139 111 97 96 101 108 119 125 139 148 158 170 181 255 255 255 255 255 255 255 255 255 255 255 255 238 236 236 236 235 235 235 235 235 235 235 235 235 234 234 234 234 234 233 233 233 255 255 255 255 255 255
255 255 255 255 255 255 255 255 255 255 255 255 255 255 255 255 255 255 255 255 255 255 255 255 127 20 3 3 5 5 1 0 0 0 0 0 0 0 0 0 0 0 0 0 1 2 0 0 3 21 37 40 23 26 24 32 32 20 21 16 2 1 1 1 2 3 10 18 33 78 130 179 210 222 218 208 176 151 134 119 112 106 110 110 115 122 132 144 153 164 178 255 255 255 255 255 255 255 255 255 235 236 237 236 236 235 235 235 236 235 235 235 235 235 234 234 234 234 234 233 233 233 255 255 255 255 255 255
255 255 255 255 255 255 255 255 255 255 255 255 255 255 255 255 255 255 255 255 255 255 255 255 255 30 6 55 42 16 7 2 0 0 0 0 0 0 0 0 0 0 0 0 0 1 1 1 6 31 59 42 56 59 60 43 34 29 33 22 13 5 1 0 1 7 11 19 45 77 139 186 210 228 225 215 202 188 175 162 148 135 123 114 108 109 114 121 127 137 146 152 161 170 175 181 255 255 255 234 236 236 235 236 236 236 236 236 235 235 235 235 235 235 234 234 234 234 234 233 233 233 255 255 255 255 255 255
255 255 255 255 255 255 255 255 255 255 255 255 255 255 255 255 255 255 255 255 255 255 255 255 255 49 4 67 115 41 13 6 2 0 0 0 0 0 0 0 0 0 0 0 0 0 0 0 2 9 49 64 47 55 42 26 15 17 7 9 4 1 1 0 2 9 11 26 55 101 129 191 218 228 230 223 211 200 191 188 178 167 152 140 133 126 125 125 128 134 147 171 255 255 255 255 233 235 234 235 235 236 235 236 235 235 235 235 235 235 235 235 235 234 234 234 234 234 233 233 233 233 255 255 255 255 255 255
255 255 255 255 255 255 255 255 255 255 255 255 255 255 255 255 255 255 255 255 255 255 255 255 255 67 5 25 112 99 19 4 2 0 0 0 0 0 0 0 0 0 0 0 0 2 3 16 36 50 66 55 34 21 47 32 12 6 12 16 1 0 0 2 4 14 20 34 62 104 154 183 213 226 229 223 214 209 202 200 191 179 165 158 154 154 152 166 193 214 228 235 235 237 236 236 236 236 236 236 236 236 235 236 235 235 235 235 235 235 235 235 234 234 234 234 234 233 233 233 233 255 255 255 255 255 255 255
255 255 255 255 255 255 255 255 255 255 255 255 255 255 255 255 255 255 255 255 255 255 255 255 255 110 38 23 12 55 21 1 0 0 0 0 0 2 0 0 0 0 0 0 1 1 3 16 24 29 39 43 31 10 9 24 17 2 9 2 1 2 3 8 11 19 32 43 70 110 162 194 213 222 229 226 220 215 210 204 196 185 174 172 173 185 216 232 235 237 236 237 236 236 235 236 236 236 236 236 236 236 235 236 235 235 235 235 235 235 235 235 234 234 234 234 233 233 233 233 233 255 255 255 255 255 255 255
255 255 255 255 255 255 255 255 255 255 255 255 255 255 255 255 255 255 255 255 255 255 255 255 255 255 64 37 30 4 3 2 2 0 0 1 2 18 4 1 2 1 1 1 1 1 1 0 0 6 38 52 30 8 3 4 6 5 2 0 2 3 15 16 20 28 42 59 87 120 164 193 211 223 228 226 224 217 212 205 200 195 191 188 197 228 236 236 236 236 236 236 236 236 236 236 236 236 236 236 236 236 236 235 235 235 235 235 235 235 235 235 234 234 234 234 234 233 233 233 233 255 255 255 255 255 255 255
255 255 255 255 255 255 255 255 255 255 255 255 255 255 255 255 255 255 255 255 255 255 255 255 255 255 113 28 92 68 7 8 9 5 2 2 1 1 3 3 2 1 0 0 1 1 0 1 1 5 35 49 20 3 5 11 2 2 1 1 6 14 23 22 29 41 53 73 105 137 164 191 210 222 228 228 225 219 214 209 207 203 204 205 223 237 235 236 236 236 236 236 236 236 236 236 236 236 236 236 236 236 236 235 235 235 235 235 235 235 235 235 234 234 234 234 233 233 233 233 233 255 255 255 255 255 255 255
255 255 255 255 255 255 255 255 255 255 255 255 255 255 255 255 255 255 255 255 255 255 255 255 255 255 255 87 57 83 25 8 26 34 2 1 2 1 4 3 1 0 0 1 1 1 2 4 12 29 46 28 7 22 13 8 2 0 1 6 11 29 29 34 41 46 67 93 113 150 168 182 204 219 225 226 226 220 214 211 210 211 213 217 235 235 236 236 236 236 236 236 236 236 236 236 236 236 236 236 236 236 236 235 235 235 235 235 234 234 234 234 234 234 234 234 233 233 233 233 255 255 255 255 255 255 255 255
255 255 255 255 255 255 255 255 255 255 255 255 255 255 255 255 255 255 255 255 255 255 255 255 255 255 255 255 77 37 36 15 6 6 3 1 1 3 5 2 5 16 16 10 2 7 28 35 53 47 26 13 21 54 53 9 2 1 5 14 23 30 31 51 53 59 74 104 127 150 169 183 202 219 225 225 225 221 215 213 215 218 218 227 236 237 235 236 236 236 236 236 236 236 236 236 236 236 236 236 235 236 236 235 235 235 235 235 234 234 234 234 234 234 234 234 233 233 233 255 255 255 255 255 255 255 255 255
255 255 255 255 255 255 255 255 255 255 255 255 255 255 255 255 255 255 255 255 255 255 255 255 255 255 255 255 255 255 255 121 95 78 77 70 77 54 41 57 92 115 123 107 83 70 44 46 58 60 115 106 118 133 63 4 4 3 12 21 32 41 52 60 75 78 85 115 139 157 175 192 202 217 220 221 222 221 218 216 216 220 219 232 236 236 236 236 236 236 236 236 236 236 236 236 235 235 235 235 236 236 236 236 236 235 235 235 234 234 234 234 234 234 234 233 233 233 233 255 255 255 255 255 255 255 255 255
255 255 255 255 255 255 255 255 255 255 255 255 255 255 255 255 255 255 255 255 255 255 255 255 255 255 255 255 255 255 255 255 255 176 175 170 169 167 148 151 166 172 171 172 170 163 165 153 127 151 163 142 174 140 23 5 4 9 16 25 37 53 69 85 85 93 98 120 148 159 177 199 203 216 220 220 218 218 218 219 221 218 224 236 236 236 236 236 236 236 236 236 236 236 236 236 235 235 235 235 235 235 235 235 235 235 235 235 234 234 234 234 234 234 234 233 233 233 233 255 255 255 255 255 255 255 255 255
255 255 255 255 255 255 255 255 255 255 255 255 255 255 255 255 255 255 255 255 255 255 255 255 255 255 255 255 255 255 255 255 255 255 255 255 255 255 255 255 255 255 255 255 255 255 255 255 170 176 151 165 148 50 2 5 10 15 19 31 46 61 79 109 109 111 118 126 151 156 177 197 204 213 218 220 218 217 217 218 219 224 234 236 236 236 236 236 236 236 236 236 236 236 236 236 235 235 235 235 235 235 235 235 235 235 235 234 234 234 234 234 234 234 234 233 233 233 233 255 255 255 255 255 255 255 255 255
255 255 255 255 255 255 255 255 255 255 255 255 255 255 255 255 255 255 255 255 255 255 255 255 255 255 255 255 255 255 255 255 255 255 255 255 255 255 255 255 255 255 255 255 255 255 255 255 255 161 162 150 54 4 4 10 18 28 30 40 59 70 87 114 130 128 134 135 145 158 177 196 208 211 214 216 216 215 215 217 220 229 237 236 236 236 236 236 236 236 236 236 236 236 236 236 235 235 235 235 235 235 235 235 235 235 234 234 234 234 234 234 234 234 234 233 233 233 233 255 255 255 255 255 255 255 255 255
255 255 255 255 255 255 255 255 255 255 255 255 255 255 255 255 255 255 255 255 255 255 255 255 255 255 255 255 255 255 255 255 255 255 255 255 255 255 255 255 255 255 255 255 255 255 255 255 175 166 164 76 6 2 6 21 35 48 49 53 65 75 96 124 145 155 153 149 150 165 186 200 209 213 216 216 217 215 219 221 224 234 236 236 236 236 236 236 236 236 236 236 236 236 236 236 236 236 236 236 235 235 235 235 235 235 235 234 234 234 234 234 234 234 234 233 233 233 233 255 255 255 255 255 255 255 255 255
255 255 255 255 255 255 255 255 255 255 255 255 255 255 255 255 255 255 255 255 255 255 255 255 255 255 255 255 255 255 255 255 255 255 255 255 255 255 255 255 255 255 255 255 255 255 255 255 255 255 117 25 4 4 13 38 61 71 69 69 79 90 115 135 152 173 179 163 158 168 192 205 210 212 215 216 216 215 219 220 227 236 235 236 236 236 236 236 236 236 236 236 236 236 236 236 235 235 235 235 235 235 235 235 235 235 234 234 234 234 234 234 234 234 233 233 233 233 233 255 255 255 255 255 255 255 255 255
255 255 255 255 255 255 255 255 255 255 255 255 255 255 255 255 255 255 255 255 255 255 255 255 255 255 255 255 255 255 255 255 255 255 255 255 255 255 255 255 255 255 255 255 255 255 255 255 255 138 51 10 7 9 27 59 86 97 92 92 99 114 128 144 163 183 190 184 180 183 197 206 213 212 212 216 219 221 218 214 231 237 235 236 236 236 236 236 236 236 236 236 236 236 236 235 235 235 235 235 235 235 235 235 235 235 234 234 234 234 234 234 234 233 233 233 233 233 233 255 255 255 255 255 255 255 255 255
255 255 255 255 255 255 255 255 255 255 255 255 255 255 255 255 255 255 255 255 255 255 255 255 255 255 255 255 255 255 255 255 255 255 255 255 255 255 255 255 255 255 255 255 255 255 255 176 160 71 18 10 10 19 47 82 107 119 114 108 116 136 154 165 177 193 202 200 199 199 201 209 213 214 213 216 222 226 218 220 235 236 236 235 236 236 236 236 236 236 236 236 235 235 235 235 235 235 235 235 235 235 235 235 235 234 234 234 233 233 233 233 233 233 233 233 233 233 233 255 255 255 255 255 255 255 255 255
255 255 255 255 255 255 255 255 255 255 255 255 255 255 255 255 255 255 255 255 255 255 255 255 255 255 255 255 255 255 255 255 255 255 255 255 255 255 255 255 255 255 255 255 255 255 255 255 142 37 15 12 16 35 68 102 128 140 142 137 139 152 170 178 184 202 208 212 207 206 205 210 212 214 215 218 223 223 219 232 236 236 236 236 236 236 236 236 236 236 236 236 235 235 235 235 235 235 235 235 235 235 234 234 234 234 234 234 234 234 234 233 233 233 233 233 233 233 233 255 255 255 255 255 255 255 255 255
255 255 255 255 255 255 255 255 255 255 255 255 255 255 255 255 255 255 255 255 255 255 255 255 255 255 255 255 255 255 255 255 255 255 255 255 255 255 255 255 255 255 255 255 255 255 174 169 86 24 16 16 28 55 88 121 147 160 167 167 170 170 181 189 198 208 215 220 216 212 208 210 212 215 215 220 224 222 228 235 235 236 236 236 236 236 236 236 235 235 235 235 235 235 235 235 235 235 235 235 235 235 234 234 234 234 234 234 234 234 234 233 233 233 233 233 233 233 233 255 255 255 255 255 255 255 255 255
255 255 255 255 255 255 255 255 255 255 255 255 255 255 255 255 255 255 255 255 255 255 255 255 255 255 255 255 255 255 255 255 255 255 255 255 255 255 255 255 255 255 255 255 255 255 255 122 38 21 20 24 43 73 106 139 163 179 187 186 187 185 189 200 211 215 222 226 223 218 214 214 215 215 216 222 223 226 235 234 235 235 236 236 236 236 235 235 235 235 235 235 235 235 235 235 235 235 235 235 235 235 234 234 234 234 234 234 234 234 234 233 233 233 233 233 233 233 233 255 255 255 255 255 255 255 255 255
255 255 255 255 255 255 255 255 255 255 255 255 255 255 255 255 255 255 255 255 255 255 255 255 255 255 255 255 255 255 255 255 255 255 255 255 255 255 255 255 255 255 255 255 255 255 137 53 26 23 27 35 56 88 124 154 179 192 199 199 200 199 202 209 219 220 227 228 227 222 219 219 218 220 221 222 224 232 235 236 235 235 235 236 236 236 235 235 235 235 235 235 235 235 235 235 235 235 235 235 235 235 234 234 234 234 234 234 234 234 234 233 233 233 233 233 233 233 255 255 255 255 255 255 255 255 255 255
255 255 255 255 255 255 255 255 255 255 255 255 255 255 255 255 255 255 255 255 255 255 255 255 255 255 255 255 255 255 255 255 255 255 255 255 255 255 255 255 255 255 255 255 255 154 71 31 27 31 36 47 70 101 136 167 191 202 209 210 211 209 211 221 225 228 229 231 228 225 222 223 221 220 223 224 229 236 235 235 235 235 235 235 236 236 235 235 235 235 235 235 235 235 235 235 235 235 235 235 234 234 234 234 234 234 234 234 234 234 233 233 233 233 233 233 233 233 255 255 255 255 255 255 255 255 255 255
255 255 255 255 255 255 255 255 255 255 255 255 255 255 255 255 255 255 255 255 255 255 255 255 255 255 255 255 255 255 255 255 255 255 255 255 255 255 255 255 255 255 255 255 177 82 40 31 32 40 44 56 83 112 151 179 199 212 218 221 221 220 219 228 231 231 230 232 229 227 225 224 223 220 221 225 234 235 235 235 235 235 235 235 236 236 235 235 235 235 235 235 235 235 235 235 235 235 235 235 234 234 234 234 234 234 234 234 234 234 233 233 233 233 233 233 233 233 255 255 255 255 255 255 255 255 255 255
255 255 255 255 255 255 255 255 255 255 255 255 255 255 255 255 255 255 255 255 255 255 255 255 255 255 255 255 255 255 255 255 255 255 255 255 255 255 255 255 255 255 255 255 121 55 35 37 40 44 52 72 100 131 162 187 206 218 224 227 229 229 227 232 233 233 232 233 231 228 227 226 223 222 224 228 234 234 235 235 235 235 235 235 235 235 235 235 235 235 235 235 235 235 235 235 235 235 235 235 234 234 234 234 234 234 234 234 234 234 233 233 233 233 233 233 233 233 255 255 255 255 255 255 255 255 255 255
255 255 255 255 255 255 255 255 255 255 255 255 255 255 255 255 255 255 255 255 255 255 255 255 255 255 255 255 255 255 255 255 255 255 255 255 255 255 255 255 255 255 255 172 75 44 41 44 44 51 65 84 111 141 170 193 212 222 229 233 233 233 234 234 235 235 234 233 233 232 232 227 223 221 223 230 235 235 234 235 235 235 235 235 235 235 235 235 235 235 235 235 235 235 235 235 235 235 235 235 234 234 234 234 234 234 234 234 234 234 233 233 233 233 233 233 233 233 255 255 255 255 255 255 255 255 255 255
255 255 255 255 255 255 255 255 255 255 255 255 255 255 255 255 255 255 255 255 255 255 255 255 255 255 255 255 255 255 255 255 255 255 255 255 255 255 255 255 255 255 255 127 56 46 47 50 55 61 75 95 120 150 178 200 217 226 231 235 236 237 237 237 239 238 238 235 234 234 232 228 225 224 224 231 235 235 235 235 235 235 235 235 235 235 235 235 235 235 235 235 235 235 235 235 235 235 235 235 234 234 234 234 234 234 234 234 234 234 234 233 233 233 233 233 233 233 255 255 255 255 255 255 255 255 255 255
255 255 255 255 255 255 255 255 255 255 255 255 255 255 255 255 255 255 255 255 255 255 255 255 255 255 255 255 255 255 255 255 255 255 255 255 255 255 255 255 255 255 176 79 52 50 50 57 61 70 84 102 124 153 185 207 220 228 232 236 237 237 238 240 240 239 239 239 236 235 233 230 227 228 230 233 235 235 235 235 235 235 235 235 235 235 235 235 235 235 235 235 235 235 235 235 235 235 235 235 234 234 234 234 234 234 234 234 234 234 234 233 233 233 233 233 233 233 255 255 255 255 255 255 255 255 255 255
255 255 255 255 255 255 255 255 255 255 255 255 255 255 255 255 255 255 255 255 255 255 255 255 255 255 255 255 255 255 255 255 255 255 255 255 255 255 255 255 255 255 136 59 57 56 60 65 70 80 94 112 132 157 189 210 225 232 237 239 238 236 238 240 240 240 238 238 236 237 235 231 227 229 233 236 235 235 235 235 235 235 235 235 235 235 235 235 235 235 235 235 235 235 235 235 235 235 235 235 234 234 234 234 234 234 234 234 234 234 234 233 233 233 233 233 233 233 233 255 255 255 255 255 255 255 255 255
255 255 255 255 255 255 255 255 255 255 255 255 255 255 255 255 255 255 255 255 255 255 255 255 255 255 255 255 255 255 255 255 255 255 255 255 255 255 255 255 255 255 83 61 62 64 68 75 81 89 98 115 133 162 194 214 225 233 238 238 239 237 239 240 240 241 240 239 238 238 236 233 230 230 234 238 235 235 235 235 235 235 235 235 235 235 235 235 235 235 235 235 235 235 235 235 235 235 235 235 234 234 234 234 234 234 234 234 234 234 234 233 233 233 233 233 234 233 233 255 255 255 255 255 255 255 255 255
