P2
# Created by GIMP version 2.1 0 .30  PNM plug-in
7 5
255
0 0 0 0 0 0 0
0 255 0 255 0 255 0
0 0 0 0 0 0 0
0 255 0 255 0 255 0
0 0 0 0 0 0 0