P2
# Created by GIMP version 2.10.30 PNM plug-in
100 67
255
126 149 134 144 137 138 144 136 133 139 137 134 147 138 124 129 120 119 134 125 116 104 97 96 97 106 80 83 55 70 69 82 81 91 0 90 57 101 86 84 99 69 111 53 123 59 141 0 129 73 119 88 111 115 116 105 93 92 55 97 41 92 29 94 3 56 0 57 55 58 94 109 100 85 98 96 109 105 111 104 129 97 129 128 121 130 119 133 126 130 130 132 145 144 130 147 148 137 157 131
132 152 144 150 148 148 152 145 153 140 146 151 153 128 143 144 138 124 133 136 140 91 106 103 102 76 97 65 81 86 75 111 117 119 53 104 95 102 92 110 116 90 116 102 114 113 139 96 125 107 136 163 138 166 113 130 124 132 96 165 104 133 62 116 63 57 86 105 82 79 70 91 55 95 82 78 117 103 97 129 101 121 102 107 123 106 123 128 120 127 108 135 139 127 148 129 137 141 149 142
130 141 147 138 150 141 150 141 132 136 137 132 138 149 129 135 131 116 133 111 101 96 80 78 82 79 77 108 89 98 107 115 113 123 94 155 91 142 115 124 116 100 120 139 140 134 149 122 163 159 169 143 179 155 175 142 161 155 153 152 139 164 126 160 110 144 90 131 138 130 104 108 112 110 68 76 93 87 87 98 106 101 93 110 96 114 112 112 113 108 108 127 126 132 124 124 123 129 114 127
134 150 137 150 133 152 138 143 142 144 132 129 157 125 127 123 112 112 118 111 86 80 80 79 99 82 123 120 102 116 99 110 123 140 147 136 173 131 98 146 178 138 168 156 157 148 164 162 148 158 166 189 170 178 163 171 166 167 165 181 185 174 163 174 176 171 177 173 156 156 163 159 147 152 113 115 110 102 87 94 70 37 79 107 103 105 125 96 95 116 123 119 124 137 128 118 115 134 129 144
135 141 138 132 133 135 136 136 135 123 130 135 128 138 128 141 126 120 135 108 87 70 83 82 93 110 115 114 139 116 127 135 135 161 115 166 113 167 101 168 154 146 152 154 160 134 174 124 175 137 176 151 189 154 173 155 177 162 174 167 175 174 158 174 160 171 148 174 176 159 160 160 151 170 160 152 137 140 122 122 117 81 90 90 73 80 79 78 116 96 94 123 105 109 104 126 116 131 138 136
130 140 128 133 127 133 132 133 129 135 130 116 129 113 125 109 112 81 98 75 70 97 96 102 102 116 100 125 127 118 114 127 137 144 167 142 164 160 165 151 167 149 158 158 161 158 148 162 144 157 140 177 138 171 167 172 160 170 166 163 172 164 171 158 176 163 191 178 171 183 148 171 166 177 158 152 168 163 140 163 140 105 117 80 100 91 84 72 56 78 78 78 118 117 93 118 105 109 120 117
139 148 142 140 149 138 150 141 136 133 125 126 139 128 104 121 124 90 80 107 103 120 125 130 122 119 131 149 134 134 132 135 154 171 119 174 128 166 141 161 173 162 167 163 169 103 172 1 176 128 174 122 182 135 172 170 174 168 164 183 174 177 166 182 160 180 160 188 161 177 184 174 179 162 173 184 175 166 181 179 193 179 152 145 139 123 129 101 102 103 66 105 67 96 100 99 104 112 126 130
130 149 130 148 140 141 142 136 135 135 135 123 123 113 118 112 93 79 118 115 114 131 125 120 120 136 142 143 120 122 116 122 127 141 123 152 163 153 169 163 168 156 154 158 122 113 137 118 144 169 148 166 154 167 164 171 167 167 171 164 176 157 171 160 181 170 187 175 195 174 183 176 183 182 186 178 175 171 198 173 181 172 188 177 171 154 146 155 123 100 123 82 97 83 80 87 95 99 107 136
150 160 156 160 150 141 150 145 145 147 148 149 127 118 106 94 128 123 135 151 140 128 141 142 150 159 146 148 141 112 137 144 150 149 121 157 121 152 163 148 166 152 160 65 114 4 76 2 147 148 188 142 164 163 179 177 176 177 176 181 154 183 157 197 166 191 190 194 181 168 172 172 187 200 189 195 190 198 186 187 201 176 181 194 180 186 166 186 155 155 157 153 120 122 91 103 91 72 100 111
133 149 134 155 136 120 139 152 134 143 129 123 108 113 80 104 128 124 134 132 123 140 141 162 130 137 133 136 125 124 127 141 145 145 160 165 164 161 171 177 162 169 156 175 129 90 119 60 132 149 157 170 171 171 164 180 173 167 176 171 190 164 182 190 175 204 185 166 192 170 167 185 190 198 198 196 196 171 183 193 194 202 188 186 189 183 176 185 189 157 169 155 160 135 155 113 133 101 101 80
127 136 147 128 147 136 145 137 130 127 123 101 93 112 119 115 126 115 127 138 136 125 151 124 122 136 138 137 126 127 123 132 152 176 126 149 141 146 151 126 165 119 164 117 152 7 77 2 117 52 159 140 143 157 168 176 159 182 159 183 161 188 149 196 163 180 178 195 171 185 169 186 190 177 190 177 199 196 190 199 191 199 193 193 176 207 169 196 182 181 177 183 182 171 141 149 144 127 123 83
130 151 127 135 133 111 129 128 121 124 96 79 96 100 126 113 133 108 121 143 124 130 127 119 118 133 126 121 120 110 138 145 137 149 155 165 152 160 146 185 155 174 147 171 143 147 158 107 148 151 161 155 172 156 174 174 180 161 171 159 190 149 182 161 175 207 197 193 164 170 180 194 192 211 199 188 184 187 191 186 191 179 193 183 194 177 192 187 174 179 184 177 168 186 165 167 145 151 157 126
102 116 113 122 122 125 116 127 113 96 69 98 104 108 122 117 111 107 123 112 131 107 111 128 112 123 123 126 128 111 128 133 117 153 122 124 133 105 134 119 153 108 158 118 153 78 117 45 101 113 138 134 130 148 152 170 150 164 121 187 154 181 153 178 155 181 186 174 152 154 185 178 188 191 189 179 178 202 185 195 192 186 171 193 174 186 181 187 182 178 162 166 182 168 171 156 167 172 167 156
126 149 131 133 144 134 142 114 119 86 101 133 131 145 146 136 129 149 142 151 153 138 141 142 148 134 125 120 112 116 112 135 138 168 125 153 141 158 113 185 149 181 164 183 149 170 162 94 153 147 168 144 179 148 172 167 185 146 178 149 168 166 176 166 179 166 184 157 157 167 158 192 188 196 181 192 191 174 191 204 193 190 183 172 182 198 182 199 195 181 178 194 183 174 178 168 192 193 181 181
137 144 131 140 122 122 123 133 99 108 123 121 140 141 119 125 150 127 151 135 143 138 139 132 142 133 133 132 123 122 109 128 126 127 109 145 122 116 141 126 174 119 157 129 161 102 116 84 105 86 137 136 86 137 85 154 114 125 72 112 89 155 106 129 102 105 147 136 144 145 153 157 175 168 155 159 175 167 172 174 182 192 177 166 196 188 207 197 166 185 189 158 169 181 184 191 184 188 185 186
130 145 145 139 139 121 130 103 107 132 133 153 142 144 127 138 147 139 144 150 158 138 146 147 135 143 149 149 144 118 121 125 132 155 79 162 122 176 127 181 145 181 152 170 154 101 160 0 130 54 148 103 153 104 151 111 128 129 115 148 105 150 85 160 15 156 97 121 121 130 165 140 147 177 156 150 152 153 172 158 176 173 172 179 178 197 197 194 187 175 167 191 181 182 199 182 193 195 196 193
139 146 146 137 137 122 104 109 129 140 148 140 139 137 136 137 149 141 149 154 157 141 150 163 132 145 140 150 133 134 124 133 136 146 110 137 170 130 164 112 166 134 142 112 101 107 111 60 77 45 107 119 107 103 110 95 110 114 106 98 92 101 105 106 56 88 87 108 111 134 116 133 131 150 161 138 162 162 154 145 166 170 168 165 191 186 205 182 184 162 182 166 204 189 167 189 198 183 195 196
129 138 134 126 108 83 93 122 129 129 131 125 122 136 123 132 132 134 141 147 141 133 131 135 116 133 130 135 130 118 124 122 126 139 96 172 113 152 122 62 101 95 137 15 99 4 100 1 100 38 78 54 84 69 58 86 46 102 23 96 8 100 5 102 14 85 66 102 110 79 98 89 115 113 116 147 140 154 140 153 156 162 143 164 167 156 171 179 147 157 162 187 180 178 191 187 194 174 175 186
116 135 128 129 101 89 121 113 132 134 133 129 140 127 134 128 150 145 150 128 131 121 133 126 128 139 138 139 122 133 120 132 131 136 101 116 81 113 108 118 66 91 91 82 57 67 93 54 85 17 76 59 65 71 11 1 16 0 65 76 45 76 56 81 53 81 97 59 77 106 104 80 125 113 106 103 112 132 147 150 141 139 146 153 131 144 147 153 144 163 179 197 183 183 192 175 177 183 181 188
117 120 104 85 75 95 107 102 113 113 123 127 117 129 107 124 128 133 132 132 118 123 117 109 105 126 121 123 122 108 121 111 108 126 38 73 58 58 75 37 88 18 86 0 3 0 0 1 0 2 11 0 0 0 0 0 0 0 1 0 0 0 6 0 4 0 57 88 59 78 66 84 96 84 123 109 115 103 121 114 114 102 113 98 121 120 156 109 134 157 159 168 177 182 164 159 167 187 179 182
109 123 80 97 110 100 117 123 118 123 127 126 138 120 133 132 118 110 126 117 125 116 130 120 108 127 128 140 114 129 96 102 104 80 44 83 52 83 48 102 59 37 38 0 3 0 0 3 0 1 0 6 0 1 0 2 2 1 6 5 0 0 0 3 0 0 8 64 28 81 64 50 90 73 99 109 94 127 119 117 115 111 104 103 96 130 122 133 138 168 136 170 171 184 167 177 181 185 169 180
113 114 77 118 118 109 144 138 134 130 136 139 134 144 122 134 123 120 131 147 135 134 131 126 120 139 131 136 128 109 106 91 105 101 38 6 0 0 5 3 0 0 1 0 0 6 0 0 2 7 0 1 0 2 17 55 0 81 86 85 4 1 1 0 5 0 24 88 86 69 52 81 58 104 38 86 91 104 117 109 113 102 107 118 84 96 141 117 128 131 137 165 158 170 165 184 185 192 190 197
107 103 124 138 122 140 127 120 136 139 141 137 142 130 129 124 144 127 138 133 130 119 134 130 124 129 129 130 123 119 103 102 88 101 44 58 58 4 59 0 4 0 0 4 0 0 7 0 0 0 28 56 58 59 107 101 165 150 143 167 164 129 115 119 72 100 83 77 73 56 63 54 63 81 67 64 83 70 66 123 93 104 88 93 111 139 136 124 126 101 141 158 160 164 168 185 175 187 204 199
83 143 125 140 143 133 136 140 139 142 145 136 130 134 130 141 140 129 140 147 136 129 137 133 131 134 140 132 140 108 104 88 98 88 41 32 65 3 5 1 0 2 0 0 1 8 0 2 3 0 44 68 0 72 10 97 136 158 77 173 141 153 110 129 99 133 113 150 133 157 127 104 57 55 78 56 66 46 67 68 101 100 87 106 113 139 163 127 161 142 139 173 171 168 180 184 185 174 189 185
89 120 122 107 137 95 136 124 129 121 130 132 125 122 117 116 124 111 127 126 106 115 123 117 116 99 89 104 119 91 72 73 78 98 42 134 53 95 61 0 0 2 3 0 1 2 58 6 48 44 67 49 91 56 106 123 171 146 104 157 172 142 103 147 164 149 92 160 123 135 128 148 142 116 77 47 92 57 34 64 45 52 97 81 94 106 122 153 135 144 150 174 177 168 168 166 176 178 180 187
115 141 121 126 119 126 125 135 129 132 132 124 124 126 122 127 116 105 121 117 109 104 98 108 109 85 100 104 98 95 91 76 117 122 36 80 76 3 0 11 3 0 5 4 59 0 59 0 48 33 22 58 5 0 0 18 144 118 75 119 114 171 82 142 138 126 111 143 144 136 124 150 134 157 146 114 101 65 66 82 62 64 83 112 85 87 111 137 121 129 126 148 170 158 187 147 159 157 193 169
106 128 129 119 126 116 132 141 132 112 118 132 132 129 119 110 112 99 118 109 102 92 92 97 92 109 76 82 76 89 96 118 125 146 148 144 91 79 0 0 0 5 64 69 91 71 100 46 113 35 96 48 111 54 3 11 155 147 150 119 143 134 108 149 173 144 159 116 151 158 115 131 137 147 162 159 130 110 66 68 76 62 47 123 106 105 104 89 107 108 106 113 135 155 166 158 166 167 155 169
115 130 110 117 133 119 136 124 126 128 127 128 132 118 108 129 115 101 121 112 95 91 115 96 103 83 88 84 106 114 117 134 125 166 121 113 79 27 7 3 0 2 60 39 49 33 60 35 48 41 39 54 32 47 0 0 80 130 120 186 161 175 128 181 138 157 189 130 139 128 122 130 162 178 165 167 140 114 158 89 85 46 61 105 138 125 144 100 104 96 108 103 130 112 120 112 142 174 149 167
131 135 121 118 140 120 143 129 131 132 144 143 138 140 126 107 120 112 120 120 103 88 119 96 77 102 104 131 129 120 132 155 145 155 147 172 82 2 2 0 8 51 91 68 81 41 138 63 133 20 109 51 89 25 0 2 0 7 0 55 40 84 53 138 137 172 169 148 150 116 156 112 167 131 202 171 148 115 167 111 159 118 86 81 157 165 150 154 163 104 102 108 108 145 123 119 114 123 150 155
115 127 125 130 116 120 119 132 120 140 137 119 118 114 105 121 116 115 105 111 106 71 83 82 102 96 127 123 146 144 147 145 138 172 132 87 69 0 72 1 71 55 63 59 61 58 68 63 104 48 48 59 1 0 0 2 5 0 2 3 0 10 0 59 58 46 160 173 161 142 117 136 164 174 191 153 139 137 171 125 150 93 101 118 139 174 160 160 142 146 104 83 102 95 116 125 117 105 117 142
132 129 141 133 140 127 129 128 136 130 131 131 131 124 113 117 128 119 109 112 111 84 85 102 102 141 131 137 158 151 134 147 147 157 139 153 60 43 0 67 3 67 106 47 100 3 5 0 123 30 94 63 0 0 7 0 0 2 0 0 0 1 0 4 0 43 137 171 143 179 170 156 174 208 157 173 141 138 150 156 157 84 90 99 144 176 184 166 176 158 149 145 123 126 115 72 113 119 105 121
111 126 115 134 124 121 133 137 124 128 122 113 119 117 105 114 113 90 92 91 84 87 94 112 123 134 139 141 139 139 133 139 143 154 152 103 56 59 56 68 65 93 108 73 56 59 63 59 95 54 76 49 0 3 0 1 0 3 1 0 0 1 3 0 0 33 72 158 118 170 165 162 189 180 163 182 131 147 139 157 115 91 66 104 129 186 182 182 170 165 160 133 142 131 124 107 115 71 101 110
132 125 118 138 133 123 132 135 128 129 118 116 129 106 118 122 102 99 108 91 99 106 112 134 135 138 151 153 142 153 136 144 148 165 123 92 62 71 77 64 109 144 125 20 108 70 130 56 153 29 51 2 2 0 4 0 0 0 0 0 3 1 0 0 0 105 86 144 113 151 157 165 165 182 176 157 140 153 113 134 99 89 81 94 110 180 184 192 183 151 158 157 168 139 143 111 84 103 94 91
103 133 109 119 113 112 118 99 117 105 96 109 134 112 107 93 80 89 89 96 99 95 121 137 136 143 143 147 150 133 151 139 154 145 145 99 51 61 57 98 95 109 94 106 126 86 143 118 90 34 73 0 4 4 0 0 0 3 3 0 0 0 3 2 0 37 55 158 101 170 170 156 191 196 178 169 134 142 135 115 54 45 68 78 124 161 193 177 185 175 187 168 174 170 152 149 126 115 94 97
121 135 138 118 132 117 112 106 107 105 110 114 111 79 83 79 83 82 99 108 101 104 116 145 146 145 151 161 146 154 149 154 149 161 90 73 62 53 86 30 92 38 104 33 107 74 170 108 108 45 23 0 2 0 5 2 1 0 1 0 0 0 1 0 2 48 72 162 128 171 141 162 173 182 169 175 166 122 123 86 85 103 58 82 102 148 189 194 185 178 187 162 191 169 176 151 156 126 100 107
121 126 122 126 121 113 103 117 97 100 118 123 116 91 103 99 117 108 128 133 118 124 122 149 157 159 164 168 162 144 158 149 175 169 168 126 64 107 91 124 137 132 133 127 157 136 148 142 131 80 96 0 0 0 4 0 2 0 0 4 2 0 0 0 0 41 124 138 126 164 172 165 179 191 164 162 190 171 148 84 110 54 82 91 121 181 174 202 196 184 178 190 192 185 192 157 160 144 124 131
127 143 127 124 125 85 123 99 126 119 123 105 88 80 113 123 138 140 137 149 136 133 141 143 153 155 168 170 165 157 162 162 162 184 119 76 67 1 76 0 110 90 144 59 150 108 175 150 141 30 61 62 0 0 0 0 0 0 2 1 0 0 2 6 2 77 60 123 106 101 112 129 150 154 153 167 165 161 129 103 92 96 96 66 139 164 203 186 199 189 199 204 190 201 193 179 155 160 138 131
116 138 111 124 99 82 103 81 119 99 103 100 110 112 126 118 130 130 133 137 134 137 137 138 145 145 159 163 150 176 152 175 157 159 171 124 64 74 70 107 101 117 149 130 145 172 150 167 130 62 99 61 0 2 4 0 0 4 1 0 0 3 0 0 0 43 70 85 89 112 101 109 106 116 118 91 106 123 106 96 98 100 65 116 113 177 189 201 181 194 194 182 190 187 192 177 174 180 151 135
98 106 101 101 100 86 95 89 91 79 94 98 107 102 117 121 123 117 135 127 133 142 130 142 146 160 146 148 153 148 151 148 162 159 119 59 48 24 62 38 66 74 156 121 143 97 122 72 70 25 39 51 9 0 0 0 0 4 0 0 5 2 0 6 4 34 64 89 90 115 107 115 93 110 115 102 112 100 98 115 108 79 76 68 135 170 177 185 180 200 175 187 190 188 194 169 178 174 150 147
99 126 95 103 101 93 97 86 104 88 105 119 134 121 124 127 127 134 139 140 150 139 144 149 152 169 145 156 150 167 145 151 154 160 161 146 61 90 66 149 146 139 163 169 149 169 127 107 149 101 135 59 80 70 0 0 0 3 0 1 3 0 7 54 54 98 84 95 110 112 112 118 123 126 99 127 95 117 118 113 80 73 85 95 144 167 187 192 199 180 196 192 203 188 200 171 183 168 154 166
96 107 82 83 82 71 79 77 97 115 108 113 114 121 120 121 130 110 139 148 151 141 150 152 154 168 171 148 134 157 146 149 162 176 129 114 63 0 63 62 144 75 143 115 168 94 156 117 159 126 148 102 0 68 0 2 0 5 0 2 3 0 0 7 6 74 54 98 143 101 133 105 124 110 121 120 130 109 123 102 107 72 91 115 144 175 199 200 194 191 182 197 202 184 189 204 188 181 172 180
95 102 78 78 77 87 102 81 97 111 132 109 126 118 116 106 117 132 149 141 149 158 160 166 158 163 161 177 160 157 144 161 157 154 166 167 78 111 68 115 107 175 145 187 146 172 153 163 165 125 159 105 123 93 73 41 40 46 34 46 34 49 61 89 100 133 111 90 133 152 126 133 143 118 109 143 95 120 121 95 90 91 74 133 157 197 181 192 189 181 206 193 186 194 199 199 177 182 183 173
68 82 70 77 79 62 82 90 102 129 108 119 103 120 118 122 123 122 137 150 147 148 153 168 156 172 164 170 170 178 163 146 154 172 132 147 87 37 50 75 72 144 163 134 168 73 152 141 152 88 157 102 72 121 67 98 55 54 51 60 51 61 56 69 107 136 133 112 138 140 141 133 139 130 134 127 131 103 111 112 88 87 104 156 184 181 193 199 200 194 197 197 212 196 194 186 198 194 188 180
73 89 81 109 78 94 109 95 118 111 135 118 135 127 126 140 128 138 141 145 158 152 146 160 161 175 178 176 171 170 166 165 171 159 143 173 87 100 82 109 137 165 150 151 142 134 169 116 160 82 171 139 145 147 180 130 156 90 113 134 95 158 133 146 100 164 132 150 122 145 159 144 137 127 117 133 143 120 103 119 93 90 112 172 180 194 200 198 177 198 191 189 204 198 202 191 191 189 184 188
69 90 81 90 98 96 111 105 113 126 122 139 138 132 128 135 141 128 150 156 150 144 159 145 157 168 166 182 156 174 151 173 156 182 156 145 122 61 69 67 77 80 152 135 139 137 142 96 84 115 123 161 152 162 125 164 116 125 89 179 120 159 140 144 125 139 141 114 140 137 133 148 134 132 134 121 133 90 85 108 80 113 138 183 167 200 190 209 212 190 198 205 194 199 191 199 179 192 198 182
82 77 85 99 104 83 113 100 113 113 127 115 120 134 118 132 126 127 142 144 148 131 146 148 148 153 172 149 164 173 162 151 147 155 161 166 120 126 80 35 67 94 137 99 134 140 143 90 139 97 145 110 146 117 151 143 109 125 167 148 153 157 128 161 121 170 95 170 125 161 127 137 126 130 113 116 113 108 80 94 96 102 142 173 181 193 185 186 182 188 183 186 183 206 193 180 182 181 190 170
88 111 85 100 101 108 104 93 104 116 125 119 127 127 124 126 117 130 146 142 136 138 155 137 144 162 158 175 149 170 148 163 156 172 148 142 156 92 60 79 64 66 78 80 132 120 140 95 136 128 119 114 116 157 82 137 109 146 144 177 158 149 122 158 142 152 179 125 161 136 156 125 151 131 133 129 95 87 81 83 114 134 168 198 187 191 193 200 179 198 185 201 199 182 180 188 203 188 182 179
104 109 109 96 109 77 111 111 108 111 124 120 122 126 113 131 123 132 133 149 154 138 136 142 150 158 154 158 153 149 149 153 157 157 152 182 119 175 103 4 89 42 92 69 129 137 171 112 141 64 176 111 179 119 93 87 158 146 140 160 176 162 0 153 140 173 145 166 160 137 128 150 159 127 130 93 127 79 91 114 108 171 177 175 185 193 190 196 197 180 191 201 198 195 191 199 180 188 179 195
133 142 136 121 97 109 106 115 99 115 124 136 128 137 123 129 144 123 129 137 158 139 145 152 162 147 161 173 163 141 154 151 168 171 163 146 172 138 131 98 76 68 68 89 84 120 154 170 150 155 127 148 148 157 108 78 121 163 146 182 177 159 109 70 165 144 171 147 149 166 165 145 140 144 116 122 125 103 112 108 154 174 194 196 199 201 201 194 198 196 197 193 204 185 192 190 186 187 188 187
148 159 160 136 130 98 111 93 119 99 104 124 133 130 126 136 115 106 123 134 133 133 139 148 149 149 156 150 154 143 149 136 149 174 125 172 136 174 102 87 96 30 68 8 100 87 154 120 178 116 180 98 166 121 38 89 147 154 144 176 163 147 122 104 132 171 123 163 156 153 151 155 137 137 118 104 58 95 91 152 185 187 192 185 189 189 199 202 182 205 189 194 195 200 169 181 187 191 182 171
144 169 163 157 125 106 114 116 92 118 130 115 140 140 132 132 150 144 161 175 162 177 159 150 143 153 135 140 133 145 141 148 126 158 160 147 180 135 175 138 101 74 76 84 123 126 133 150 160 133 127 163 154 156 141 78 116 140 160 169 181 118 144 99 145 142 160 151 153 163 139 125 135 110 79 101 75 92 146 156 189 181 196 186 203 185 196 193 192 194 182 217 197 179 212 190 187 169 174 188
147 148 152 145 135 136 136 146 136 135 146 137 152 155 159 156 162 160 172 174 156 179 162 169 173 173 176 168 169 141 145 147 138 165 125 168 131 160 116 107 126 3 55 3 74 1 124 6 166 44 139 112 167 138 154 130 138 158 137 179 159 174 36 98 105 155 84 167 138 144 140 131 112 126 93 55 111 125 157 181 189 190 179 197 187 199 191 200 200 196 200 172 190 190 188 179 175 190 187 179
136 139 146 145 141 145 144 152 145 143 130 129 154 146 138 166 156 155 161 158 157 171 151 167 164 176 184 166 166 168 184 170 161 159 169 156 161 153 161 168 137 116 95 1 54 78 108 120 145 122 123 149 140 134 148 159 163 142 129 121 175 152 146 154 142 144 157 146 151 120 119 118 125 91 98 102 107 142 158 187 196 191 189 184 191 193 198 197 188 192 193 183 193 191 167 201 178 170 182 194
134 155 153 161 147 139 152 155 140 143 147 147 145 154 148 148 156 153 153 158 172 172 142 151 167 173 167 195 170 175 163 164 166 171 162 173 162 152 149 148 160 100 96 11 60 6 68 0 126 56 95 78 145 132 86 131 95 111 96 123 90 172 109 143 71 146 122 157 144 128 102 87 93 104 81 125 151 185 174 183 186 192 188 193 190 200 195 192 201 196 215 205 170 192 191 180 179 198 196 183
156 160 160 155 171 154 174 157 157 157 148 148 157 162 150 157 162 162 158 163 164 165 155 172 172 196 189 168 167 182 184 167 185 167 182 167 176 173 174 179 167 175 156 154 144 86 68 59 113 52 133 131 168 118 155 139 148 142 151 153 173 146 151 152 99 144 97 136 112 106 107 104 108 91 120 159 171 191 201 202 188 188 193 186 195 196 204 201 193 194 170 193 195 179 211 174 190 182 186 193
148 153 153 160 156 172 161 162 157 165 172 160 150 154 160 166 171 163 153 165 158 165 156 159 157 173 164 168 172 167 168 190 177 183 170 179 174 169 182 173 186 163 179 162 183 158 163 108 116 69 27 59 13 105 82 116 80 138 123 160 138 157 52 141 19 120 72 88 118 91 95 98 111 142 175 163 188 185 184 195 188 196 191 204 194 209 202 208 184 196 198 193 196 200 198 193 197 196 195 200
155 161 160 154 159 162 178 165 163 148 163 161 177 142 158 164 166 148 156 168 156 164 157 170 171 167 153 170 167 168 162 173 184 157 175 179 170 202 181 202 179 202 165 199 159 184 180 188 174 170 173 159 160 125 124 116 107 91 146 140 130 147 80 155 95 138 84 108 104 124 130 148 163 173 180 193 188 189 192 209 211 196 213 194 200 191 198 195 193 190 195 199 192 192 197 209 194 210 201 204
147 158 159 153 153 150 161 148 149 142 153 155 160 136 142 147 154 140 148 158 144 148 145 167 162 166 152 150 146 155 155 160 160 175 173 173 174 178 180 174 190 160 183 162 184 166 187 170 183 169 178 173 179 174 168 171 147 165 140 146 112 119 86 114 95 116 109 127 136 159 167 180 191 184 200 186 188 182 197 182 196 200 184 197 195 192 199 181 194 186 206 187 215 204 192 191 207 206 206 201
148 167 165 152 153 159 169 152 139 136 136 142 144 142 137 135 126 143 137 156 146 132 151 155 144 154 151 144 142 151 154 157 155 157 169 166 176 172 163 190 183 189 159 188 195 184 200 182 204 177 203 187 199 196 188 190 189 193 187 187 187 191 173 196 177 201 167 186 189 192 173 175 200 198 196 193 187 200 204 196 195 208 198 179 200 190 200 211 198 216 206 207 197 215 183 202 191 202 185 203
145 146 137 142 143 133 140 141 141 141 139 138 138 148 144 143 131 112 140 124 149 133 131 139 141 143 147 142 137 131 131 142 153 182 151 165 173 144 176 166 183 142 188 163 182 172 188 172 187 163 192 177 184 182 181 183 173 188 163 192 180 184 169 185 168 177 196 191 191 188 185 196 182 201 188 202 197 206 183 196 196 190 186 194 187 203 200 200 188 190 186 170 195 188 194 194 188 191 191 199
128 139 131 134 134 130 136 138 131 136 141 127 125 135 136 136 161 147 131 146 139 167 136 146 132 130 138 138 136 131 132 151 159 147 140 174 151 169 138 175 159 184 151 175 163 162 173 165 191 171 185 171 177 170 182 178 179 187 178 188 173 196 172 196 164 211 167 196 208 204 189 202 198 201 191 179 197 194 196 207 194 209 189 215 214 207 203 197 208 203 201 201 192 195 184 192 192 198 196 197
133 151 140 136 134 137 146 150 143 140 147 133 142 151 146 138 160 147 125 154 157 121 145 150 142 144 151 147 141 140 131 141 154 164 158 140 167 134 173 143 174 150 187 153 170 172 183 177 175 177 160 187 172 192 188 189 188 184 187 191 186 193 180 205 178 198 199 199 203 196 193 200 200 194 205 195 209 208 216 196 218 196 198 194 181 185 209 205 197 185 215 205 199 196 186 207 179 200 190 206
140 137 118 133 134 120 118 132 142 135 141 132 143 153 141 133 125 142 152 129 124 133 147 130 134 140 149 150 144 152 134 140 140 164 134 171 132 169 138 171 150 160 152 143 168 156 176 175 170 165 172 164 183 163 176 162 176 158 176 193 172 205 154 202 172 195 180 188 194 193 189 189 207 199 198 199 193 204 208 195 194 190 197 196 193 215 174 179 194 180 193 186 208 189 188 191 182 185 196 204
116 136 120 125 140 150 133 110 131 131 141 131 126 134 125 129 141 128 129 127 130 124 138 129 148 146 148 151 143 151 131 141 127 160 155 147 168 123 146 150 166 167 163 159 156 166 159 178 169 182 165 187 165 183 170 182 168 177 172 191 185 194 181 186 182 180 205 187 179 180 191 189 197 196 189 196 194 196 197 210 195 198 199 178 186 195 190 188 176 194 180 191 218 183 204 197 191 192 176 188
99 126 136 145 148 133 126 127 131 123 131 104 111 113 121 122 125 104 121 136 143 133 132 148 152 150 145 144 144 134 126 123 144 153 70 167 121 150 115 167 162 177 152 145 158 128 179 164 173 152 183 150 192 153 183 166 176 167 171 175 174 172 167 177 169 175 165 180 175 155 184 177 197 201 188 195 187 195 178 174 204 197 191 182 171 174 182 191 190 168 175 173 199 194 200 191 188 192 166 192
99 124 129 133 134 122 121 125 117 108 113 95 101 105 109 113 124 109 125 133 139 133 131 141 139 146 148 154 148 134 123 120 122 155 165 145 171 137 169 154 170 159 165 150 131 157 144 168 159 153 150 179 143 179 149 169 167 157 168 167 180 169 169 183 173 157 180 168 155 177 153 181 191 184 176 173 171 177 179 179 195 189 180 185 183 173 176 185 177 167 164 173 186 192 189 191 189 195 175 192
110 135 135 136 135 123 128 134 132 123 125 118 121 128 127 134 123 114 129 129 134 133 130 134 136 150 150 159 145 134 126 130 139 165 118 165 133 157 145 152 160 158 159 124 164 90 177 133 169 104 171 122 170 140 151 138 143 156 131 178 142 174 133 177 161 181 156 173 151 160 159 169 170 160 178 180 182 170 176 164 169 182 171 177 192 191 196 190 166 172 157 179 177 194 181 197 187 196 184 191
