P2
# Created by GIMP version 2.10.30 PNM plug-in
5 3
255
0   0  50 127   0
0  50 255 255   0
0   0 200 200 200
