P2
# Created by GIMP version 2.10.30 PNM plug-in
128 96
255
215 216 216 217 217 218 218 219 220 220 219 220 221 221 222 222 222 222 223 224 224 224 225 225 226 226 226 226 227 227 227 227 228 228 228 228 228 229 229 228 228 229 229 229 229 230 230 230 230 230 229 230 230 230 230 231 231 231 230 231 230 230 230 231 231 230 230 230 231 230 230 230 230 230 230 230 231 231 231 231 231 231 231 231 231 231 231 231 231 231 231 231 231 231 231 231 232 232 232 232 232 232 232 232 232 232 232 232 232 232 232 232 231 231 231 231 231 231 230 230 230 229 229 229 228 228 228 227
215 216 216 217 217 218 218 218 219 220 219 220 220 221 221 222 222 222 223 223 224 224 225 225 225 226 226 226 226 227 227 227 228 228 228 228 229 229 229 229 228 229 229 229 229 229 229 229 229 231 231 228 228 229 228 229 230 232 232 231 230 230 230 230 230 231 230 230 231 230 231 230 230 230 230 231 231 231 231 231 231 231 231 231 231 231 231 231 231 231 231 231 231 231 231 231 232 232 232 232 232 232 232 232 232 232 232 232 232 232 232 232 231 231 231 231 231 231 230 230 230 229 229 229 229 228 228 227
215 215 216 216 217 217 218 218 219 219 219 220 220 221 221 222 222 222 223 223 224 224 225 225 225 225 225 226 226 226 227 227 227 227 228 228 228 228 228 228 228 229 229 228 230 227 223 221 225 217 200 205 203 206 203 225 231 230 232 231 231 229 230 231 230 229 230 230 231 230 231 232 230 230 230 230 231 231 231 231 231 231 231 231 231 231 231 231 231 231 231 231 231 231 231 231 232 232 232 232 232 232 232 232 232 232 232 232 232 232 232 232 231 231 231 231 231 231 230 230 230 229 229 229 229 229 228 228
215 215 216 216 217 217 218 218 218 219 219 220 220 221 221 221 222 222 222 222 223 224 224 225 225 225 225 225 226 226 226 227 227 227 228 228 228 228 228 228 228 228 229 228 227 227 226 227 201 166 213 229 229 229 224 199 217 232 229 230 227 229 228 219 220 225 230 231 230 231 231 228 227 230 231 230 231 231 231 231 231 231 231 231 231 231 231 231 231 231 231 231 231 231 231 231 232 232 232 232 232 232 232 232 232 232 232 232 232 232 232 232 231 231 231 231 231 231 230 230 230 229 229 229 229 229 228 228
215 215 216 216 217 217 217 218 218 219 219 220 220 221 221 221 222 222 222 222 223 223 224 224 225 225 225 225 226 226 226 227 227 227 227 227 228 228 228 228 229 229 228 229 229 227 223 195 211 204 203 202 218 221 224 222 185 205 183 166 158 158 203 228 219 207 220 226 227 230 229 229 228 227 228 229 231 230 232 231 230 231 231 231 231 231 231 231 231 231 231 231 231 231 231 231 232 232 232 232 232 232 232 232 232 232 232 232 232 232 232 232 231 231 231 231 231 231 231 230 230 230 229 229 229 229 229 228
215 215 216 216 216 217 217 218 218 219 219 220 220 220 221 220 222 222 222 222 223 223 224 224 225 225 225 225 226 226 226 226 227 227 227 227 228 228 227 228 229 228 228 229 226 216 195 207 202 225 222 229 222 213 211 184 130 102 179 211 213 160 181 226 228 223 201 212 227 223 221 210 193 193 208 224 230 231 232 230 232 231 230 232 231 231 231 231 231 231 231 231 231 231 231 231 232 232 232 232 232 232 232 232 232 232 232 232 232 232 232 232 231 231 231 231 231 231 231 230 230 230 230 229 229 229 229 228
215 215 216 216 216 217 217 217 218 218 219 219 220 220 220 220 221 221 222 222 222 223 223 224 224 224 225 225 225 226 226 226 227 227 227 227 227 227 228 228 225 224 228 227 225 207 163 219 197 226 225 229 226 224 197 118 150 193 218 224 216 204 138 210 211 209 205 206 199 179 141 97 63 83 54 126 193 221 229 233 231 231 231 231 231 231 231 231 232 232 232 232 232 232 232 232 232 232 232 232 232 232 232 232 232 232 232 232 232 232 232 232 231 231 231 231 231 231 231 230 230 230 230 229 229 229 229 228
214 215 215 216 216 216 217 217 218 218 219 219 219 220 220 220 221 221 222 222 222 223 223 224 224 224 225 225 225 225 226 226 227 227 227 227 227 228 228 221 224 227 228 228 229 215 160 176 196 226 214 215 218 200 104 136 192 207 225 206 168 116 72 110 114 102 100 98 99 71 57 63 68 77 38 32 121 157 188 211 219 231 230 232 231 231 231 231 232 232 232 232 232 232 232 232 232 232 232 232 232 232 232 232 232 232 232 232 232 232 232 232 231 231 231 231 231 231 231 230 230 230 230 229 229 229 229 228
214 215 215 215 215 216 217 217 218 218 219 219 219 220 220 220 221 221 221 221 222 222 222 223 224 224 225 225 225 225 226 226 226 227 227 227 228 227 218 224 229 229 229 228 216 205 178 182 167 194 197 217 204 134 99 179 184 167 135 130 112 154 143 163 156 156 145 105 95 73 49 133 135 115 119 72 76 121 127 151 180 197 221 231 232 231 232 231 232 232 232 232 232 232 232 232 232 232 232 232 232 232 232 232 232 232 232 232 232 232 232 232 231 231 231 231 231 231 231 230 230 230 230 229 229 229 229 228
214 214 215 215 215 215 216 217 217 218 218 219 219 219 220 220 220 221 221 221 222 222 222 223 223 224 224 225 225 225 225 226 226 227 227 227 227 220 222 227 228 228 227 200 208 227 201 177 160 195 214 191 142 55 142 154 152 167 133 58 110 84 143 147 147 120 88 110 62 44 40 55 51 56 62 45 42 51 83 96 88 131 162 206 227 232 232 232 232 232 232 232 232 232 232 232 232 232 232 232 232 232 232 232 232 232 232 232 232 232 232 232 231 231 231 231 231 231 231 230 230 230 230 229 229 229 229 228
213 214 215 215 215 215 216 217 217 217 218 218 218 219 219 220 220 220 221 221 221 222 222 223 223 224 224 225 225 225 225 225 226 227 227 227 225 213 227 228 228 229 215 208 227 221 209 147 134 145 151 141 117 81 173 193 179 161 78 99 35 41 43 40 49 70 71 58 46 31 29 19 25 25 18 23 43 49 61 56 71 60 82 113 189 223 231 232 232 232 232 232 232 232 232 232 232 232 232 232 232 232 232 232 232 232 232 232 232 232 232 232 231 231 231 231 231 231 231 230 230 230 230 229 229 229 229 228
213 214 214 214 214 215 216 216 216 217 217 218 218 218 219 219 220 220 220 221 221 222 222 223 223 223 224 224 224 225 225 225 225 226 227 227 224 208 228 227 229 228 202 220 215 207 200 152 117 156 103 77 42 113 110 161 147 70 79 70 60 51 15 7 4 9 15 8 5 2 20 7 11 1 11 19 8 19 36 47 59 80 67 53 91 179 217 229 232 232 232 232 232 232 232 232 232 232 232 232 232 232 232 232 232 232 232 232 232 232 232 232 231 231 231 231 231 231 231 230 230 230 230 229 229 229 228 228
213 213 214 214 214 215 215 216 216 217 217 217 218 218 219 219 220 220 220 220 221 221 222 223 223 223 224 224 224 225 225 226 225 226 226 226 226 214 224 228 229 222 203 215 214 183 172 145 123 106 103 68 76 121 93 87 81 59 60 33 32 11 12 30 38 17 28 8 24 2 11 3 4 4 4 7 16 20 22 27 44 37 43 57 64 80 177 221 227 232 232 231 232 232 232 232 232 232 232 232 232 232 232 232 232 232 232 232 232 232 232 232 232 231 231 231 231 231 231 230 230 230 230 229 229 229 228 228
213 213 213 213 214 214 215 215 216 216 217 217 218 218 219 219 219 220 220 220 221 221 222 222 223 223 224 224 224 225 225 226 226 226 225 226 223 212 213 228 227 223 196 204 166 181 168 122 112 69 102 44 54 50 27 19 38 51 52 35 36 30 28 35 23 10 21 11 5 2 4 21 1 4 3 3 2 22 50 43 60 58 47 22 51 74 93 192 221 225 230 231 232 232 233 232 232 232 232 232 232 232 232 232 232 232 232 232 232 232 232 232 232 232 231 231 231 231 231 230 230 230 230 229 229 229 228 228
212 212 213 213 213 214 214 215 215 216 216 217 217 217 218 218 219 219 220 220 221 221 221 222 222 223 223 224 224 224 225 225 225 224 225 226 223 214 182 198 206 192 156 109 95 73 64 80 47 35 23 20 30 19 6 7 5 5 4 3 10 29 45 61 50 67 51 13 2 1 1 3 2 2 4 9 4 3 12 11 35 57 58 31 24 55 63 142 213 226 224 231 232 232 233 233 232 232 232 232 232 232 232 232 233 233 232 232 232 232 232 232 232 232 231 231 231 231 231 230 230 230 230 229 229 229 228 228
212 212 212 212 213 213 214 215 215 215 216 216 217 217 218 218 218 219 219 220 221 221 221 222 222 223 223 224 224 224 225 225 225 224 224 222 220 176 160 144 120 147 165 115 110 52 38 21 30 39 17 11 6 5 2 3 3 8 15 13 18 39 47 36 29 29 8 5 5 2 0 2 0 1 6 28 54 22 2 5 13 44 54 33 23 19 51 81 182 221 224 228 231 232 233 233 232 232 233 233 233 233 233 233 233 233 232 232 232 232 232 232 232 232 232 231 231 231 231 230 230 230 230 229 229 229 228 228
211 211 212 212 213 213 214 214 215 215 215 216 216 217 217 218 218 219 219 220 220 220 221 221 222 222 222 224 223 224 224 226 226 224 225 217 185 138 119 121 153 179 166 81 27 52 66 22 12 15 5 2 2 0 1 0 2 2 12 44 51 30 35 31 11 2 4 6 0 0 0 0 1 1 5 19 44 69 43 28 27 21 11 6 10 4 24 48 147 203 219 225 231 232 232 233 233 233 233 233 233 233 233 233 233 232 232 232 232 232 232 232 232 232 231 231 231 231 231 230 230 230 230 230 229 229 228 228
210 211 211 212 212 213 213 214 214 215 215 216 215 216 217 217 218 218 219 220 220 220 221 221 221 222 220 223 224 224 225 225 225 224 218 181 148 109 127 192 218 197 111 63 56 29 42 42 4 1 0 1 1 1 3 4 9 10 7 24 54 38 38 19 2 1 1 1 0 0 0 0 1 1 1 10 47 54 70 39 33 44 43 34 21 23 8 35 91 186 211 224 232 233 232 233 233 233 233 233 233 233 233 233 233 233 232 232 232 232 232 232 232 232 232 231 231 231 231 230 230 230 230 230 230 229 229 228
209 210 211 211 211 212 212 213 214 214 214 215 215 216 216 217 218 218 218 219 219 220 220 221 221 222 219 190 221 223 225 226 224 219 186 133 135 127 161 188 180 108 23 67 41 22 17 15 8 1 1 1 0 0 1 2 3 3 12 16 23 31 26 3 3 1 0 0 0 0 0 0 1 1 0 1 6 39 41 76 41 55 65 47 24 12 5 15 43 148 199 225 232 233 232 233 233 233 233 233 233 233 233 233 233 233 233 232 232 232 232 232 232 232 232 232 231 231 231 230 230 230 230 230 230 229 229 228
208 209 210 211 211 211 212 212 214 214 214 215 215 215 216 216 217 217 218 218 219 220 220 221 221 222 222 201 179 211 219 212 213 192 130 151 162 130 92 112 73 42 5 34 21 7 3 8 5 1 11 9 1 0 0 0 2 1 1 3 3 3 3 2 2 0 1 1 0 0 0 0 1 1 1 1 1 1 10 29 39 25 57 62 51 24 6 4 20 75 191 225 231 232 232 233 233 233 233 233 233 233 233 233 233 233 233 233 232 232 232 232 233 232 232 232 231 231 231 230 230 230 230 230 230 229 229 228
208 209 209 209 210 210 211 211 212 213 213 214 215 215 215 216 216 217 218 218 219 219 220 220 220 219 220 221 210 153 192 217 210 157 92 115 70 66 80 122 34 13 7 47 16 1 1 5 1 1 3 15 1 1 0 0 0 0 0 0 1 1 1 1 2 5 25 19 6 14 9 3 2 4 0 1 2 1 1 2 7 10 33 63 59 36 25 25 24 55 174 225 231 231 232 233 233 233 233 233 233 233 233 233 233 233 233 232 232 232 232 232 233 232 232 232 232 231 231 231 231 230 230 230 230 229 229 228
207 208 208 209 209 210 210 211 211 212 213 214 214 214 215 215 216 216 217 218 218 219 219 219 218 218 220 221 219 187 160 194 196 104 61 135 107 78 84 124 48 3 2 2 2 6 1 1 0 0 1 2 0 0 0 0 0 0 1 1 0 0 0 0 5 17 16 18 40 42 25 17 13 3 1 1 1 0 0 1 2 1 9 51 73 59 77 104 57 64 168 228 231 232 233 233 233 233 233 233 233 233 233 233 233 233 233 233 233 233 233 233 233 233 232 232 232 232 231 231 231 231 230 230 230 229 229 228
206 207 207 208 208 209 210 210 211 212 211 212 213 214 214 215 215 216 217 217 217 218 218 217 218 218 220 220 208 196 166 172 166 66 18 22 75 64 125 63 31 3 1 3 3 4 2 5 1 0 0 3 0 0 0 1 0 0 1 1 1 1 1 2 2 4 15 14 23 32 42 29 10 4 4 2 1 1 1 1 14 10 11 23 35 50 97 169 154 120 183 228 231 232 233 233 233 233 233 233 233 234 234 234 233 233 233 233 233 233 233 233 233 233 233 232 232 232 231 231 231 231 230 230 230 229 229 228
205 206 207 207 207 208 209 210 210 211 211 212 213 213 214 214 215 215 216 217 217 218 217 215 218 218 220 219 197 206 194 139 124 64 27 24 3 5 20 10 13 2 3 3 0 0 1 2 0 4 1 0 0 0 0 1 0 0 0 0 1 2 13 27 34 5 4 6 10 13 17 26 17 16 16 31 43 52 34 29 64 69 71 92 94 66 84 167 175 165 189 225 232 231 233 234 233 233 233 233 234 234 234 234 234 233 233 233 233 233 233 233 233 233 233 233 232 232 232 231 231 231 230 230 229 229 229 228
204 205 206 206 206 207 208 208 209 210 210 211 212 213 213 213 214 214 214 216 216 218 216 214 219 217 219 216 199 209 210 124 117 82 16 6 5 17 17 1 5 1 1 1 1 2 1 2 21 24 2 0 0 0 0 0 0 0 0 0 1 11 37 66 61 32 24 17 6 3 1 3 2 1 6 29 53 44 36 36 61 93 151 188 159 105 88 151 180 189 196 220 229 230 233 234 234 234 234 234 234 234 234 234 234 234 233 233 233 233 233 233 233 233 233 232 232 232 232 232 231 231 230 230 230 229 229 229
204 204 205 205 206 206 207 208 208 209 210 210 211 212 212 213 213 214 214 215 216 216 216 213 216 217 214 207 205 197 175 104 64 43 29 8 3 13 3 2 1 2 1 1 3 3 1 23 27 4 1 1 0 0 0 0 0 0 0 0 2 6 38 61 82 61 15 6 1 1 10 50 31 2 1 7 11 43 97 111 108 146 143 131 115 108 101 157 182 197 209 217 225 230 234 234 234 234 234 234 234 234 234 234 234 234 234 233 233 233 233 233 233 233 233 233 232 232 232 232 231 231 230 230 230 229 229 229
202 203 204 204 205 205 206 207 207 208 209 209 210 211 211 212 212 213 213 214 215 215 217 215 215 215 215 220 212 198 186 157 75 64 40 4 17 10 1 1 2 3 4 3 4 16 14 17 3 1 2 1 0 0 0 0 0 0 0 0 1 4 30 45 26 11 10 6 5 5 14 23 11 9 7 5 17 30 80 123 98 93 94 103 80 57 101 173 187 206 215 216 224 231 233 234 234 234 234 234 234 234 234 234 234 234 234 234 233 233 233 233 233 233 233 233 233 233 232 232 232 231 231 230 230 230 229 228
201 202 203 203 204 204 205 206 206 207 208 208 209 210 210 211 212 213 213 213 214 215 215 216 215 216 218 217 218 207 162 99 76 60 19 16 32 13 1 1 2 18 20 3 3 5 32 20 1 1 1 1 0 0 0 0 0 0 0 0 1 1 3 23 46 25 4 3 6 6 5 7 2 5 4 15 35 51 52 62 67 61 93 144 149 110 122 177 193 208 218 223 223 231 233 234 234 234 234 234 234 234 234 234 234 234 234 234 233 233 233 233 234 233 233 233 233 233 232 232 232 231 231 230 230 230 229 228
200 201 202 202 203 203 204 205 206 206 207 207 208 209 210 211 211 211 212 213 213 214 214 215 215 215 216 217 216 142 154 138 90 63 6 12 1 0 0 1 3 11 6 2 3 11 22 3 1 1 4 2 1 0 1 2 1 0 0 0 1 1 5 12 8 1 1 4 9 32 11 13 1 2 1 3 10 37 69 63 37 40 83 119 111 100 139 165 187 203 219 226 222 228 232 234 234 234 234 234 234 234 234 234 234 234 234 234 234 234 233 233 234 234 233 233 233 233 233 232 232 231 231 231 230 230 229 229
199 200 201 201 202 202 203 204 205 206 206 207 208 209 210 210 210 210 211 212 212 213 213 214 215 215 215 216 203 121 191 170 84 14 3 1 1 1 1 2 3 2 1 1 0 5 4 3 1 10 15 2 0 0 0 9 2 0 0 0 1 1 1 1 0 0 0 0 11 31 26 30 31 15 4 8 21 26 31 43 15 32 85 144 112 110 119 152 183 214 221 228 226 225 233 233 234 234 234 234 234 234 234 234 234 234 234 234 234 234 233 233 234 234 234 233 233 233 233 232 232 232 231 231 230 230 229 229
199 199 200 201 202 202 203 204 204 205 206 207 207 208 208 209 209 209 210 210 211 212 212 213 213 214 215 216 215 182 132 60 38 50 1 2 2 0 0 1 1 1 1 2 2 5 1 1 17 17 2 3 1 0 1 2 1 0 0 0 0 0 0 0 0 0 0 0 2 3 6 21 27 34 37 21 41 58 39 25 27 49 111 134 86 101 132 137 199 218 220 226 228 225 227 234 234 234 234 234 234 234 234 234 234 234 234 234 234 234 234 234 234 234 234 233 234 234 233 232 232 232 231 231 230 230 230 229
198 198 199 200 201 201 202 203 203 204 205 206 206 206 207 207 208 208 209 209 210 211 211 211 212 212 213 213 208 197 175 46 61 54 1 15 5 0 0 1 2 7 2 11 5 3 1 3 9 2 1 3 1 1 2 1 1 0 0 0 0 0 0 1 0 0 0 0 1 2 1 2 7 17 30 63 66 60 40 22 26 45 105 73 59 111 119 170 189 217 222 227 228 229 225 233 234 234 234 234 234 234 234 234 234 234 234 234 234 234 234 234 234 234 234 234 234 234 233 233 232 232 232 231 231 230 230 229
197 197 198 199 199 201 202 202 203 204 204 205 205 206 206 207 207 207 208 208 208 209 210 210 211 210 210 180 91 53 104 85 3 1 0 3 0 0 0 0 2 3 2 6 1 0 1 3 17 3 1 2 0 0 0 0 1 3 1 0 0 0 0 0 0 0 0 1 0 0 0 1 1 7 29 63 87 78 43 22 5 13 39 43 63 87 138 189 207 203 218 222 219 223 226 231 233 234 234 234 234 234 234 234 234 234 234 234 234 234 234 234 234 234 234 234 233 233 233 233 232 232 232 232 231 230 230 229
196 197 197 198 198 199 200 201 202 203 203 204 204 205 205 205 205 206 206 207 208 208 209 209 211 205 152 58 23 49 92 62 1 0 0 0 0 0 0 0 1 2 1 1 0 0 1 6 24 2 0 0 0 0 0 0 1 2 0 0 0 0 0 0 0 0 1 1 0 1 0 0 2 6 46 82 87 70 49 14 2 2 7 38 61 94 169 192 213 218 210 199 162 140 169 221 234 234 234 233 234 234 234 234 234 234 234 234 234 234 234 234 234 234 234 234 234 233 233 233 232 232 232 232 231 231 230 230
195 195 196 197 197 199 200 200 201 202 202 203 203 203 204 204 205 205 206 206 207 207 207 208 207 156 74 34 5 2 2 2 0 0 1 0 0 0 0 0 2 1 0 0 0 0 0 6 31 3 1 0 0 0 0 0 0 0 0 0 0 0 0 0 0 2 9 8 4 1 1 1 2 1 15 67 79 51 25 16 2 9 31 60 89 146 196 215 225 230 215 145 97 71 48 171 233 234 234 234 235 235 235 235 235 235 235 235 234 234 234 234 234 234 234 234 234 234 233 233 233 233 232 232 231 231 230 230
194 194 195 196 196 197 198 199 199 201 201 202 202 202 202 203 204 204 204 205 206 206 206 207 198 76 47 11 3 1 2 2 1 3 0 0 0 0 0 0 3 1 1 0 0 0 0 7 29 3 2 1 0 0 0 0 0 0 0 0 0 0 0 0 0 0 1 4 6 10 4 2 5 4 3 11 36 34 6 2 22 46 64 80 135 189 215 222 225 215 157 113 155 183 104 134 230 234 234 235 235 235 235 235 235 235 235 235 234 234 234 234 234 234 234 234 234 234 234 233 233 233 232 232 231 231 231 230
191 192 193 194 194 196 196 197 198 199 200 200 200 201 201 202 202 203 203 204 204 205 206 206 177 38 16 1 1 0 0 0 2 3 0 0 0 0 1 1 2 1 1 0 0 0 0 0 4 1 1 0 0 0 0 0 0 0 0 0 0 0 1 0 0 0 0 1 1 2 6 19 17 11 5 3 3 3 10 32 58 71 94 130 195 213 218 217 203 153 138 201 219 201 128 165 229 233 232 233 233 234 234 235 235 235 235 235 234 234 234 234 235 234 234 234 234 234 234 233 233 233 232 232 232 231 231 230
190 191 192 192 192 194 195 197 197 198 198 199 199 199 200 200 201 202 202 203 203 204 205 205 171 28 3 1 0 0 0 0 1 2 0 0 1 0 2 1 4 1 0 0 0 0 0 0 0 1 1 0 0 0 0 0 0 0 0 0 0 0 1 0 0 0 0 2 10 27 43 43 27 21 23 13 5 9 42 49 63 107 150 201 215 211 211 198 147 162 221 229 197 168 198 226 229 229 227 227 229 231 232 234 235 235 235 235 234 234 234 234 235 235 234 234 234 234 234 233 233 233 232 232 232 232 231 231
188 189 190 191 192 192 193 194 195 196 197 197 197 198 198 199 200 200 201 201 202 202 203 204 183 39 3 1 0 0 0 1 0 0 0 0 1 1 1 13 11 2 1 0 0 0 0 0 0 0 2 5 1 0 0 0 0 0 0 1 0 0 0 0 0 0 0 0 5 13 40 70 70 51 13 4 12 25 54 74 118 165 202 216 217 209 197 171 193 229 223 182 111 108 206 232 236 234 234 235 235 235 229 233 235 235 235 235 235 235 235 235 235 235 234 234 234 234 234 233 233 233 233 232 232 232 231 231
187 187 188 189 189 191 192 193 194 194 195 196 196 197 197 198 198 199 199 200 201 201 202 203 198 70 1 0 0 0 2 5 0 0 0 0 1 0 0 10 5 0 0 0 0 0 0 0 0 0 1 5 11 4 0 0 0 0 0 1 2 2 2 2 2 1 0 1 3 4 11 42 60 47 10 9 39 69 91 113 174 197 210 219 216 212 199 213 229 217 165 91 55 75 115 168 234 233 234 235 234 235 233 231 235 235 235 235 235 235 235 235 235 235 235 234 234 234 234 233 234 233 233 232 232 232 231 231
185 185 186 187 188 189 191 191 192 193 193 194 195 195 196 196 197 197 198 198 199 200 201 202 201 132 14 38 71 3 1 3 1 0 1 1 0 0 0 5 10 1 2 0 0 0 0 0 0 0 0 0 2 4 0 0 0 0 0 0 3 4 4 18 44 41 12 2 2 5 8 10 13 18 16 39 73 91 98 155 195 207 212 220 213 214 210 216 202 156 97 97 66 107 201 215 227 233 231 234 235 235 234 231 235 235 235 235 235 235 235 235 235 235 235 234 234 234 234 234 234 234 233 233 232 232 231 231
183 183 184 185 186 188 188 188 190 191 191 192 193 193 194 195 195 196 196 197 198 198 199 200 199 193 105 41 58 1 1 1 0 2 2 0 0 0 0 3 3 5 2 0 0 0 0 0 0 0 0 0 0 1 1 1 0 0 0 0 2 12 17 16 25 27 12 14 11 5 2 3 10 27 30 71 78 78 110 171 199 203 209 213 218 220 223 217 183 144 105 70 61 126 204 224 223 230 237 232 234 235 235 231 235 235 235 235 235 235 235 235 235 235 235 234 234 234 234 234 234 234 233 233 232 232 231 231
181 182 183 184 184 186 187 187 188 189 190 191 191 192 192 193 193 194 195 196 197 197 198 199 198 201 155 20 2 0 2 1 1 4 2 0 0 0 0 1 3 3 1 0 0 0 0 0 0 0 0 0 0 0 1 0 0 0 0 1 1 1 4 4 2 1 1 3 8 17 21 13 17 19 28 60 86 80 107 173 198 197 207 214 219 224 230 228 223 211 196 169 132 134 188 226 230 233 240 235 229 234 232 230 235 235 235 235 235 235 235 235 235 235 235 234 234 234 234 234 234 234 233 233 232 232 231 231
180 180 181 182 183 184 184 185 186 187 188 189 189 190 191 191 192 192 193 194 195 196 196 197 198 197 121 3 1 2 1 1 1 1 0 1 0 0 1 0 1 0 0 1 0 0 0 0 0 0 0 0 0 0 0 0 0 0 1 8 17 13 8 4 2 1 1 1 1 3 18 31 30 27 40 83 97 69 101 158 191 198 208 211 223 227 232 232 231 219 215 210 196 195 207 226 234 237 234 233 229 228 232 232 235 235 235 235 235 235 235 235 235 235 235 234 234 234 234 234 234 234 233 233 232 232 231 231
178 178 179 180 181 181 182 183 184 185 186 187 187 188 189 189 190 190 191 192 193 194 195 195 197 176 113 21 0 0 0 1 0 0 0 0 1 0 7 5 0 1 1 1 0 0 0 0 0 0 0 0 1 1 1 1 1 0 1 2 2 2 2 1 2 7 8 7 6 3 16 34 38 55 88 105 91 51 93 141 182 201 202 213 224 227 229 229 223 220 217 213 211 211 215 222 230 235 233 225 229 224 228 235 235 235 235 235 235 235 235 235 234 235 235 235 234 234 234 234 234 234 233 233 233 232 231 231
177 177 178 179 179 179 180 181 182 183 184 185 185 186 187 187 188 189 189 190 191 191 193 190 171 174 114 4 0 0 0 1 0 0 0 0 1 2 2 1 1 1 0 1 0 0 0 0 0 0 0 0 1 1 1 0 1 0 0 0 1 1 4 7 10 17 20 23 27 23 28 34 49 85 97 96 75 45 77 126 171 192 203 214 225 229 229 226 217 220 223 222 224 220 220 221 225 232 226 217 227 227 220 235 235 235 235 235 235 235 235 235 235 235 235 235 234 234 234 234 234 234 233 233 233 233 232 231
175 176 176 177 177 178 179 179 180 181 182 183 183 184 185 186 186 187 187 189 191 191 190 189 162 154 97 1 0 0 0 0 0 0 0 0 1 0 1 1 1 2 9 4 0 0 0 0 0 0 0 0 1 4 13 6 2 2 1 0 0 1 4 18 34 44 49 49 46 42 64 80 76 73 76 84 68 35 86 119 160 186 200 207 216 220 221 220 220 227 233 232 230 225 225 226 223 222 209 209 225 236 228 233 235 235 235 235 235 235 235 235 235 235 235 235 234 234 234 234 234 234 233 233 233 233 232 231
174 174 175 175 176 176 177 177 178 179 180 180 181 182 183 183 183 185 186 188 189 188 191 193 188 157 42 1 0 0 0 0 0 0 0 0 1 2 1 1 1 9 14 2 0 0 0 0 0 0 0 0 2 9 9 11 6 8 6 1 0 1 4 16 35 46 50 87 92 128 135 125 119 92 66 57 56 32 63 111 163 190 199 208 212 210 213 219 224 231 237 237 235 231 227 229 225 212 200 222 232 222 221 231 235 235 235 235 235 235 235 235 235 235 235 234 234 234 234 234 234 234 233 233 233 232 232 231
171 172 173 174 174 175 175 176 176 177 177 178 179 180 181 182 183 184 185 186 188 186 186 190 180 104 11 2 1 0 0 0 0 0 0 0 0 0 0 0 3 15 6 1 0 0 0 0 0 0 0 0 0 3 4 4 1 1 0 0 1 0 2 4 9 21 89 125 59 125 156 150 141 121 78 55 36 27 56 98 149 176 185 188 189 194 207 217 224 234 239 242 239 234 228 230 223 188 195 224 209 167 191 229 236 235 235 235 235 235 235 235 235 235 235 235 234 234 234 234 234 234 233 233 232 232 232 231
169 170 171 172 172 173 173 174 175 175 176 176 177 178 179 180 181 182 183 184 186 187 186 189 152 30 16 2 0 0 0 0 0 0 0 0 0 0 0 0 7 11 0 1 0 0 0 0 0 0 0 0 1 0 3 7 3 1 0 0 1 0 4 14 25 55 127 156 104 107 161 141 147 127 101 73 44 32 67 107 151 170 173 173 175 169 193 202 220 234 241 242 240 235 231 232 214 155 178 203 152 138 210 232 234 235 235 236 235 235 235 235 235 235 235 235 234 234 234 234 234 234 233 233 232 232 232 231
168 168 169 170 170 171 172 173 173 173 174 174 175 175 176 177 179 180 181 182 184 187 189 169 72 10 4 3 2 1 0 0 0 0 0 0 0 0 0 0 3 2 0 2 0 0 0 0 0 0 0 0 1 3 11 7 3 2 1 1 1 2 3 15 41 106 163 199 154 68 142 132 182 155 124 89 62 63 80 119 157 166 166 165 157 154 169 187 210 227 237 240 239 237 235 232 222 180 195 208 209 227 236 235 233 234 234 235 235 235 235 235 235 235 235 235 234 234 234 234 234 234 233 233 232 232 232 231
166 166 167 168 169 169 170 171 171 172 172 173 173 173 174 175 177 178 180 181 184 185 184 121 22 6 3 1 4 3 0 0 0 0 0 0 0 0 0 0 0 1 0 1 0 0 0 0 1 1 1 2 6 9 5 2 1 1 0 0 1 6 14 23 62 160 175 222 122 71 85 92 206 200 150 96 85 98 109 131 167 163 165 153 146 146 156 173 198 219 228 236 239 237 237 232 226 222 222 225 235 235 234 236 235 235 235 235 235 235 235 235 235 235 235 235 234 234 234 234 234 234 233 233 232 232 232 231
164 164 165 166 167 168 169 169 170 170 170 171 170 172 173 174 174 176 178 179 182 182 181 108 11 1 0 1 2 16 2 1 1 1 1 0 0 0 0 0 0 0 0 0 0 0 0 1 1 1 2 16 24 10 2 5 1 1 0 0 3 9 19 6 48 154 191 220 133 100 37 62 181 181 126 125 134 119 133 148 169 176 178 164 152 145 151 162 183 202 218 230 234 235 236 232 225 222 220 219 233 237 235 236 236 235 235 235 236 235 235 235 235 235 235 235 234 234 234 234 234 234 233 233 232 232 231 231
162 163 164 165 166 167 167 168 168 169 169 169 170 170 172 172 174 175 177 179 177 178 150 59 1 0 0 1 3 13 2 1 1 0 0 0 0 0 0 0 0 0 0 0 0 0 0 1 1 1 3 6 3 0 1 1 0 0 0 1 13 49 29 1 20 115 202 222 171 110 35 34 106 129 144 147 148 137 142 169 180 175 183 179 164 160 156 160 175 194 212 224 229 231 234 232 225 225 219 210 229 235 236 235 236 235 235 236 236 235 235 235 235 235 235 235 234 234 234 234 234 234 233 233 232 232 231 231
161 161 162 163 164 165 166 167 167 167 168 168 169 169 169 169 171 172 174 173 175 173 74 69 4 1 0 0 7 17 5 3 1 0 1 1 0 0 0 0 0 0 0 0 0 0 0 0 1 1 3 4 1 1 0 1 0 0 1 9 56 72 15 2 7 81 185 210 199 132 67 80 114 122 179 126 132 157 162 176 191 187 183 182 178 171 172 170 176 195 210 218 224 228 232 231 224 224 221 208 211 236 236 236 236 236 236 236 236 235 235 235 235 235 235 235 234 234 234 234 234 234 233 233 232 232 231 231
159 160 161 162 163 164 165 165 167 167 167 168 168 169 166 168 171 172 168 172 178 155 95 95 2 2 1 0 12 19 12 2 3 0 1 0 0 0 0 0 0 0 0 0 1 0 0 0 0 0 1 1 1 0 1 1 0 1 9 21 63 41 2 3 8 41 132 192 210 168 120 146 210 225 208 157 139 160 164 182 192 190 194 192 184 183 182 183 185 198 208 216 220 227 231 230 228 220 215 176 220 235 235 236 236 236 236 236 236 235 235 235 235 235 235 235 234 234 234 234 234 234 233 233 232 232 231 231
157 159 159 160 162 164 163 165 166 166 166 167 167 167 168 165 169 170 168 175 178 139 102 81 2 2 8 2 6 11 9 2 1 1 1 1 0 0 0 0 0 0 0 0 1 0 1 0 0 0 0 0 0 1 1 1 3 6 7 42 66 21 4 5 18 29 64 142 205 219 162 139 194 218 161 184 141 159 166 179 184 185 189 195 192 192 194 194 191 198 209 213 218 225 231 230 227 203 163 202 235 236 235 237 235 236 236 236 236 235 235 235 235 235 235 235 234 234 234 234 233 233 233 233 232 232 231 230
156 158 158 160 161 163 163 164 164 165 166 166 166 167 168 169 167 167 170 177 179 142 42 35 4 2 13 19 3 6 4 4 3 4 6 3 0 0 0 0 0 0 0 0 0 0 0 0 0 0 0 0 0 1 1 0 1 2 12 52 53 21 2 4 25 46 48 69 133 182 183 180 209 206 188 207 163 151 163 168 178 182 186 191 196 198 204 205 205 207 213 216 222 227 230 228 220 158 154 175 215 236 236 236 235 236 236 236 236 235 235 235 235 235 235 235 234 234 234 234 233 233 233 233 232 232 231 230
155 156 157 158 159 161 162 162 163 164 165 165 166 166 166 168 167 172 174 173 176 140 32 59 1 3 9 39 21 9 20 23 16 13 12 8 0 0 0 0 0 0 0 0 0 2 1 1 1 0 0 0 1 1 0 0 2 3 18 48 18 2 2 3 20 45 58 58 60 83 109 121 148 173 220 218 146 138 149 166 171 176 184 191 192 201 214 214 216 216 218 222 224 228 230 227 217 202 177 173 189 231 234 236 236 236 236 235 236 235 235 235 235 235 235 235 234 234 234 234 233 233 233 233 232 232 231 230
154 155 156 157 158 159 161 161 162 163 164 165 166 167 167 169 167 171 171 174 167 103 84 36 3 4 8 10 19 23 9 2 3 1 1 1 0 0 0 0 0 0 0 0 1 1 12 11 1 0 1 4 11 7 0 1 1 2 13 28 6 2 2 1 7 27 50 61 69 71 74 91 128 132 143 132 97 127 136 164 165 173 181 187 191 199 215 218 220 220 222 225 223 226 227 224 222 222 217 204 176 231 236 235 236 236 236 235 236 235 235 235 235 235 235 235 234 234 234 234 233 233 233 233 232 232 231 230
153 154 155 156 157 159 160 160 162 163 164 165 166 167 167 168 166 170 171 173 164 79 105 77 11 21 52 12 2 2 1 2 0 0 0 0 0 0 0 0 0 0 0 0 1 1 2 27 37 28 31 40 27 8 0 0 1 1 17 36 5 2 2 2 2 8 29 56 79 93 112 132 158 156 78 48 79 109 130 152 157 169 176 184 190 198 214 217 220 222 226 225 226 227 224 221 226 223 217 210 222 236 235 236 236 235 235 235 235 235 235 235 235 235 234 234 234 234 234 233 233 233 232 232 232 232 231 230
153 153 155 156 157 158 159 160 161 162 163 165 166 167 168 168 167 169 171 174 171 78 102 113 20 21 23 32 9 0 0 1 1 0 0 0 0 0 0 0 0 0 0 0 0 0 0 7 20 34 41 31 7 1 0 1 1 3 27 37 21 4 2 1 0 2 12 36 72 99 129 162 186 168 93 57 69 97 120 140 150 161 168 180 190 196 210 216 220 223 227 228 228 227 222 221 226 224 220 218 235 234 236 236 236 235 235 235 235 235 235 235 235 235 234 234 234 234 234 233 233 233 232 232 232 232 231 230
151 152 154 155 156 157 158 159 160 162 163 164 165 167 168 168 166 168 171 173 173 123 66 124 33 9 11 3 2 0 0 0 0 0 0 0 0 0 0 0 0 0 0 0 0 0 0 0 1 1 1 1 1 0 1 0 1 11 34 43 25 8 11 2 1 0 3 18 50 97 137 181 201 186 113 61 70 87 106 123 135 150 160 173 185 195 205 211 216 221 226 231 231 227 225 225 226 223 223 218 233 237 236 234 236 235 235 235 235 235 235 235 235 235 234 234 234 234 234 233 233 233 232 232 232 232 231 230
151 152 153 154 155 157 158 158 160 161 163 164 165 167 168 168 167 170 173 173 177 159 87 115 77 2 3 2 1 1 1 1 1 1 0 0 0 0 0 0 0 0 0 0 0 1 1 0 1 1 0 1 1 0 0 0 1 10 31 33 28 41 18 4 2 1 2 7 33 71 118 175 203 206 146 79 68 78 96 112 124 142 155 170 180 190 195 206 214 220 224 229 229 228 226 229 231 226 226 224 226 236 236 236 236 235 235 235 235 235 235 235 235 235 234 234 234 234 234 233 233 233 232 232 232 231 231 230
150 151 152 154 155 156 157 158 161 161 163 165 166 167 168 168 167 172 174 173 177 178 127 74 77 1 1 2 3 1 1 0 0 0 0 0 0 0 0 0 0 0 0 1 1 1 0 1 1 2 2 1 1 0 0 1 1 14 45 52 57 44 13 6 6 2 3 11 32 77 123 174 199 205 175 108 74 76 87 105 118 131 147 160 171 183 190 200 207 214 220 225 226 225 225 230 231 231 228 229 227 236 236 236 236 235 235 235 235 235 235 236 235 235 234 234 234 234 234 233 233 233 232 232 231 231 231 230
149 150 151 152 154 156 156 158 159 160 162 164 166 167 168 169 167 173 173 174 177 180 172 109 47 4 0 0 1 1 0 0 0 0 0 0 1 1 1 1 0 0 0 1 3 2 0 0 1 1 0 1 0 0 0 4 28 37 32 17 6 4 2 3 3 2 5 13 30 71 130 182 214 219 206 155 100 83 86 96 111 122 133 145 160 169 177 189 193 205 210 215 220 220 220 224 228 231 229 229 229 235 236 236 236 235 235 235 235 235 235 235 235 235 234 234 234 234 234 233 233 233 232 232 231 231 231 230
148 149 150 152 153 155 156 158 160 161 162 164 165 166 168 168 169 173 174 175 178 179 180 165 85 7 3 0 1 1 1 0 0 0 0 0 1 1 1 1 0 0 0 0 3 6 0 1 3 6 14 12 4 1 7 29 42 40 39 22 9 2 1 1 2 4 6 18 30 70 124 173 202 218 214 184 139 111 97 96 101 108 119 125 139 148 158 170 181 193 200 204 210 214 210 210 219 225 224 220 229 238 236 236 236 235 235 235 235 235 235 235 235 235 234 234 234 234 234 233 233 233 232 232 231 231 231 230
149 149 150 152 153 154 156 158 159 161 163 164 166 167 169 170 171 172 176 175 175 181 179 165 127 20 3 3 5 5 1 0 0 0 0 0 0 0 0 0 0 0 0 0 1 2 0 0 3 21 37 40 23 26 24 32 32 20 21 16 2 1 1 1 2 3 10 18 33 78 130 179 210 222 218 208 176 151 134 119 112 106 110 110 115 122 132 144 153 164 178 184 190 197 197 198 203 208 205 215 235 236 237 236 236 235 235 235 236 235 235 235 235 235 234 234 234 234 234 233 233 233 232 232 231 231 231 230
149 150 150 152 153 154 156 158 159 161 163 164 166 168 170 171 172 170 172 174 176 175 172 166 148 30 6 55 42 16 7 2 0 0 0 0 0 0 0 0 0 0 0 0 0 1 1 1 6 31 59 42 56 59 60 43 34 29 33 22 13 5 1 0 1 7 11 19 45 77 139 186 210 228 225 215 202 188 175 162 148 135 123 114 108 109 114 121 127 137 146 152 161 170 175 181 192 208 223 234 236 236 235 236 236 236 236 236 235 235 235 235 235 235 234 234 234 234 234 233 233 233 232 232 232 231 231 230
149 150 150 152 153 154 156 158 160 161 163 165 166 168 170 171 173 176 175 174 171 173 171 167 160 49 4 67 115 41 13 6 2 0 0 0 0 0 0 0 0 0 0 0 0 0 0 0 2 9 49 64 47 55 42 26 15 17 7 9 4 1 1 0 2 9 11 26 55 101 129 191 218 228 230 223 211 200 191 188 178 167 152 140 133 126 125 125 128 134 147 171 193 206 218 228 233 235 234 235 235 236 235 236 235 235 235 235 235 235 235 235 235 234 234 234 234 234 233 233 233 233 232 232 232 231 230 230
149 150 151 152 154 155 157 158 160 162 163 166 167 169 170 172 173 173 173 174 174 171 173 170 156 67 5 25 112 99 19 4 2 0 0 0 0 0 0 0 0 0 0 0 0 2 3 16 36 50 66 55 34 21 47 32 12 6 12 16 1 0 0 2 4 14 20 34 62 104 154 183 213 226 229 223 214 209 202 200 191 179 165 158 154 154 152 166 193 214 228 235 235 237 236 236 236 236 236 236 236 236 235 236 235 235 235 235 235 235 235 235 234 234 234 234 234 233 233 233 233 232 232 231 232 231 230 230
150 152 152 153 155 156 157 159 161 162 163 166 168 169 171 172 172 171 173 174 171 174 178 175 173 110 38 23 12 55 21 1 0 0 0 0 0 2 0 0 0 0 0 0 1 1 3 16 24 29 39 43 31 10 9 24 17 2 9 2 1 2 3 8 11 19 32 43 70 110 162 194 213 222 229 226 220 215 210 204 196 185 174 172 173 185 216 232 235 237 236 237 236 236 235 236 236 236 236 236 236 236 235 236 235 235 235 235 235 235 235 235 234 234 234 234 233 233 233 233 233 232 232 231 231 231 230 230
151 152 153 154 156 157 158 160 162 163 164 167 168 169 170 169 172 174 177 178 179 178 181 179 177 140 64 37 30 4 3 2 2 0 0 1 2 18 4 1 2 1 1 1 1 1 1 0 0 6 38 52 30 8 3 4 6 5 2 0 2 3 15 16 20 28 42 59 87 120 164 193 211 223 228 226 224 217 212 205 200 195 191 188 197 228 236 236 236 236 236 236 236 236 236 236 236 236 236 236 236 236 236 235 235 235 235 235 235 235 235 235 234 234 234 234 234 233 233 233 233 232 232 231 231 231 230 229
152 154 154 155 156 158 159 161 163 164 164 166 169 172 171 172 174 175 178 178 179 182 184 181 180 167 113 28 92 68 7 8 9 5 2 2 1 1 3 3 2 1 0 0 1 1 0 1 1 5 35 49 20 3 5 11 2 2 1 1 6 14 23 22 29 41 53 73 105 137 164 191 210 222 228 228 225 219 214 209 207 203 204 205 223 237 235 236 236 236 236 236 236 236 236 236 236 236 236 236 236 236 236 235 235 235 235 235 235 235 235 235 234 234 234 234 233 233 233 233 233 232 232 231 231 231 230 229
153 154 154 156 157 159 160 161 162 165 166 168 168 171 170 174 176 177 177 178 183 185 187 182 178 179 166 87 57 83 25 8 26 34 2 1 2 1 4 3 1 0 0 1 1 1 2 4 12 29 46 28 7 22 13 8 2 0 1 6 11 29 29 34 41 46 67 93 113 150 168 182 204 219 225 226 226 220 214 211 210 211 213 217 235 235 236 236 236 236 236 236 236 236 236 236 236 236 236 236 236 236 236 235 235 235 235 235 234 234 234 234 234 234 234 234 233 233 233 233 232 232 232 231 231 231 230 229
154 155 155 157 158 159 160 161 162 165 167 168 170 171 172 176 178 179 181 181 184 186 188 187 183 178 184 160 77 37 36 15 6 6 3 1 1 3 5 2 5 16 16 10 2 7 28 35 53 47 26 13 21 54 53 9 2 1 5 14 23 30 31 51 53 59 74 104 127 150 169 183 202 219 225 225 225 221 215 213 215 218 218 227 236 237 235 236 236 236 236 236 236 236 236 236 236 236 236 236 235 236 236 235 235 235 235 235 234 234 234 234 234 234 234 234 233 233 233 232 232 232 231 231 231 230 230 229
154 155 156 157 159 160 161 162 163 165 167 168 170 171 171 175 177 179 181 181 185 187 188 189 186 181 183 189 184 168 152 121 95 78 77 70 77 54 41 57 92 115 123 107 83 70 44 46 58 60 115 106 118 133 63 4 4 3 12 21 32 41 52 60 75 78 85 115 139 157 175 192 202 217 220 221 222 221 218 216 216 220 219 232 236 236 236 236 236 236 236 236 236 236 236 236 235 235 235 235 236 236 236 236 236 235 235 235 234 234 234 234 234 234 234 233 233 233 233 232 232 232 231 231 231 230 230 229
155 156 157 158 159 160 161 162 163 165 167 168 170 172 172 174 177 179 181 182 183 186 188 190 191 191 191 194 196 194 189 187 184 176 175 170 169 167 148 151 166 172 171 172 170 163 165 153 127 151 163 142 174 140 23 5 4 9 16 25 37 53 69 85 85 93 98 120 148 159 177 199 203 216 220 220 218 218 218 219 221 218 224 236 236 236 236 236 236 236 236 236 236 236 236 236 235 235 235 235 235 235 235 235 235 235 235 235 234 234 234 234 234 234 234 233 233 233 233 232 232 232 231 231 231 231 230 230
155 156 157 158 159 160 161 162 163 165 166 167 169 171 172 172 176 178 180 182 184 186 188 190 192 193 193 192 195 193 194 199 200 195 194 190 193 193 189 200 202 193 195 201 199 205 198 184 170 176 151 165 148 50 2 5 10 15 19 31 46 61 79 109 109 111 118 126 151 156 177 197 204 213 218 220 218 217 217 218 219 224 234 236 236 236 236 236 236 236 236 236 236 236 236 236 235 235 235 235 235 235 235 235 235 235 235 234 234 234 234 234 234 234 234 233 233 233 233 232 232 232 231 231 231 231 230 230
155 156 156 157 158 159 160 161 163 165 166 167 168 170 172 173 174 176 179 181 183 186 188 190 192 193 193 193 196 196 202 199 197 196 201 202 201 201 202 207 206 207 212 206 208 215 208 208 184 161 162 150 54 4 4 10 18 28 30 40 59 70 87 114 130 128 134 135 145 158 177 196 208 211 214 216 216 215 215 217 220 229 237 236 236 236 236 236 236 236 236 236 236 236 236 236 235 235 235 235 235 235 235 235 235 235 234 234 234 234 234 234 234 234 234 233 233 233 233 232 232 232 231 231 231 231 230 230
155 156 156 157 158 159 161 162 163 164 165 166 168 169 171 172 174 174 176 181 183 186 188 190 191 193 194 194 196 197 201 200 192 198 200 196 203 203 207 203 207 207 209 217 217 216 212 198 175 166 164 76 6 2 6 21 35 48 49 53 65 75 96 124 145 155 153 149 150 165 186 200 209 213 216 216 217 215 219 221 224 234 236 236 236 236 236 236 236 236 236 236 236 236 236 236 236 236 236 236 235 235 235 235 235 235 235 234 234 234 234 234 234 234 234 233 233 233 233 232 232 232 231 231 231 231 230 230
155 156 156 157 158 159 160 161 162 163 164 165 167 168 170 171 173 175 176 178 181 184 186 188 190 192 194 195 194 198 198 197 197 199 196 196 201 201 200 205 208 204 208 213 213 211 204 193 179 186 117 25 4 4 13 38 61 71 69 69 79 90 115 135 152 173 179 163 158 168 192 205 210 212 215 216 216 215 219 220 227 236 235 236 236 236 236 236 236 236 236 236 236 236 236 236 235 235 235 235 235 235 235 235 235 235 234 234 234 234 234 234 234 234 233 233 233 233 233 232 232 232 231 231 231 231 230 230
155 156 156 157 158 159 159 161 162 163 163 165 166 167 169 170 171 173 175 178 180 182 184 187 188 190 192 193 194 197 196 195 194 195 199 197 193 198 201 194 200 210 215 212 203 199 197 190 186 138 51 10 7 9 27 59 86 97 92 92 99 114 128 144 163 183 190 184 180 183 197 206 213 212 212 216 219 221 218 214 231 237 235 236 236 236 236 236 236 236 236 236 236 236 236 235 235 235 235 235 235 235 235 235 235 235 234 234 234 234 234 234 234 233 233 233 233 233 233 232 232 232 231 231 231 231 230 230
155 155 156 157 158 159 159 160 160 161 162 164 164 165 167 168 170 171 173 175 178 180 182 184 187 188 190 191 192 194 194 194 187 193 199 199 197 195 194 202 210 213 207 211 201 199 205 176 160 71 18 10 10 19 47 82 107 119 114 108 116 136 154 165 177 193 202 200 199 199 201 209 213 214 213 216 222 226 218 220 235 236 236 235 236 236 236 236 236 236 236 236 235 235 235 235 235 235 235 235 235 235 235 235 235 234 234 234 233 233 233 233 233 233 233 233 233 233 233 232 232 232 231 231 231 231 230 230
155 155 156 157 157 158 158 158 160 160 161 162 163 164 165 166 168 170 172 174 176 178 180 182 184 185 187 189 190 191 190 184 182 191 195 199 203 201 203 201 206 204 209 215 216 209 195 179 142 37 15 12 16 35 68 102 128 140 142 137 139 152 170 178 184 202 208 212 207 206 205 210 212 214 215 218 223 223 219 232 236 236 236 236 236 236 236 236 236 236 236 236 235 235 235 235 235 235 235 235 235 235 234 234 234 234 234 234 234 234 234 233 233 233 233 233 233 233 233 232 232 232 231 231 231 231 230 230
155 155 156 156 157 157 158 158 159 159 160 161 161 162 163 164 166 168 170 172 174 176 178 179 180 182 184 185 186 187 189 188 189 195 197 200 201 202 206 204 202 198 207 217 213 202 174 169 86 24 16 16 28 55 88 121 147 160 167 167 170 170 181 189 198 208 215 220 216 212 208 210 212 215 215 220 224 222 228 235 235 236 236 236 236 236 236 236 235 235 235 235 235 235 235 235 235 235 235 235 235 235 234 234 234 234 234 234 234 234 234 233 233 233 233 233 233 233 233 232 232 232 231 231 231 231 230 230
155 155 155 156 156 156 157 157 158 158 159 159 160 160 161 163 164 166 167 169 171 173 175 176 178 178 180 182 183 184 187 188 189 192 195 198 201 204 206 208 204 201 193 201 192 185 179 122 38 21 20 24 43 73 106 139 163 179 187 186 187 185 189 200 211 215 222 226 223 218 214 214 215 215 216 222 223 226 235 234 235 235 236 236 236 236 235 235 235 235 235 235 235 235 235 235 235 235 235 235 235 235 234 234 234 234 234 234 234 234 234 233 233 233 233 233 233 233 233 232 232 232 231 231 231 231 230 230
155 155 155 156 155 156 156 157 157 157 158 158 158 158 159 160 161 163 163 165 168 169 171 173 175 176 177 179 178 182 185 186 188 190 193 196 199 202 203 208 212 213 207 201 201 201 137 53 26 23 27 35 56 88 124 154 179 192 199 199 200 199 202 209 219 220 227 228 227 222 219 219 218 220 221 222 224 232 235 236 235 235 235 236 236 236 235 235 235 235 235 235 235 235 235 235 235 235 235 235 235 235 234 234 234 234 234 234 234 234 234 233 233 233 233 233 233 233 232 232 232 232 231 231 231 231 230 230
153 154 155 155 156 156 155 155 156 156 156 156 156 157 157 157 158 159 161 162 163 166 168 170 172 174 175 177 179 182 184 186 187 187 190 193 196 199 202 206 210 213 217 216 209 154 71 31 27 31 36 47 70 101 136 167 191 202 209 210 211 209 211 221 225 228 229 231 228 225 222 223 221 220 223 224 229 236 235 235 235 235 235 235 236 236 235 235 235 235 235 235 235 235 235 235 235 235 235 235 234 234 234 234 234 234 234 234 234 234 233 233 233 233 233 233 233 233 232 232 232 232 231 231 231 231 230 230
154 154 154 155 155 155 155 155 155 154 154 154 154 154 154 155 155 156 157 158 160 162 165 167 168 171 173 176 177 180 182 184 185 186 188 191 193 196 199 204 208 212 215 214 177 82 40 31 32 40 44 56 83 112 151 179 199 212 218 221 221 220 219 228 231 231 230 232 229 227 225 224 223 220 221 225 234 235 235 235 235 235 235 235 236 236 235 235 235 235 235 235 235 235 235 235 235 235 235 235 234 234 234 234 234 234 234 234 234 234 233 233 233 233 233 233 233 233 232 232 232 232 231 231 231 231 230 230
153 153 153 154 154 154 153 154 154 153 152 152 152 152 152 152 152 153 155 156 158 161 163 165 167 170 172 175 177 179 181 183 184 186 186 189 191 194 197 202 207 210 213 204 121 55 35 37 40 44 52 72 100 131 162 187 206 218 224 227 229 229 227 232 233 233 232 233 231 228 227 226 223 222 224 228 234 234 235 235 235 235 235 235 235 235 235 235 235 235 235 235 235 235 235 235 235 235 235 235 234 234 234 234 234 234 234 234 234 234 233 233 233 233 233 233 233 233 232 232 232 232 231 231 231 231 230 230
152 152 152 153 152 153 153 153 152 152 151 149 149 149 150 150 150 151 153 155 156 159 161 164 167 169 171 173 175 178 180 182 183 184 184 186 189 192 194 199 206 208 212 172 75 44 41 44 44 51 65 84 111 141 170 193 212 222 229 233 233 233 234 234 235 235 234 233 233 232 232 227 223 221 223 230 235 235 234 235 235 235 235 235 235 235 235 235 235 235 235 235 235 235 235 235 235 235 235 235 234 234 234 234 234 234 234 234 234 234 233 233 233 233 233 233 233 233 232 232 232 232 231 231 231 230 230 229
151 151 152 152 153 153 152 152 151 150 149 148 147 148 148 148 148 150 151 153 155 158 160 163 165 168 170 172 174 177 179 180 182 183 184 184 187 190 193 196 202 207 201 127 56 46 47 50 55 61 75 95 120 150 178 200 217 226 231 235 236 237 237 237 239 238 238 235 234 234 232 228 225 224 224 231 235 235 235 235 235 235 235 235 235 235 235 235 235 235 235 235 235 235 235 235 235 235 235 235 234 234 234 234 234 234 234 234 234 234 234 233 233 233 233 233 233 233 232 232 232 232 231 231 231 231 230 230
150 151 151 151 151 151 150 150 149 148 147 146 146 146 146 146 147 149 150 152 154 157 159 161 164 166 169 171 173 176 178 180 181 182 183 183 186 189 192 195 199 204 176 79 52 50 50 57 61 70 84 102 124 153 185 207 220 228 232 236 237 237 238 240 240 239 239 239 236 235 233 230 227 228 230 233 235 235 235 235 235 235 235 235 235 235 235 235 235 235 235 235 235 235 235 235 235 235 235 235 234 234 234 234 234 234 234 234 234 234 234 233 233 233 233 233 233 233 232 232 232 232 231 231 231 231 230 230
149 149 150 150 150 149 149 148 148 147 146 145 145 145 145 146 146 148 149 151 152 155 157 160 162 165 167 169 171 174 176 178 180 181 181 182 184 186 190 194 198 198 136 59 57 56 60 65 70 80 94 112 132 157 189 210 225 232 237 239 238 236 238 240 240 240 238 238 236 237 235 231 227 229 233 236 235 235 235 235 235 235 235 235 235 235 235 235 235 235 235 235 235 235 235 235 235 235 235 235 234 234 234 234 234 234 234 234 234 234 234 233 233 233 233 233 233 233 233 232 232 232 231 231 231 231 230 230
148 148 149 149 149 148 148 148 147 146 145 144 144 144 144 145 146 147 148 150 152 154 156 159 161 164 166 168 170 173 175 177 179 180 180 181 182 184 187 193 198 182 83 61 62 64 68 75 81 89 98 115 133 162 194 214 225 233 238 238 239 237 239 240 240 241 240 239 238 238 236 233 230 230 234 238 235 235 235 235 235 235 235 235 235 235 235 235 235 235 235 235 235 235 235 235 235 235 235 235 234 234 234 234 234 234 234 234 234 234 234 233 233 233 233 233 234 233 233 232 232 232 231 231 231 231 230 230
